<svg width="19" height="21" viewBox="0 0 19 21" fill="none" xmlns="http://www.w3.org/2000/svg">
<path d="M18.5 10.0276C18.5 15.0058 14.5561 19.0223 9.71434 19.0223C4.87259 19.0223 0.92868 15.0058 0.92868 10.0276C0.92868 5.04945 4.87259 1.03296 9.71434 1.03296C14.5561 1.03296 18.5 5.04945 18.5 10.0276Z" fill="white" stroke="#E04E39"/>
<path d="M9.1 5.3H10.574V8.919L10.288 10.712H9.386L9.1 8.919V5.3ZM8.946 12.274C8.946 12.0173 9.02667 11.8157 9.188 11.669C9.34933 11.515 9.562 11.438 9.826 11.438C10.1047 11.438 10.3247 11.515 10.486 11.669C10.6473 11.8157 10.728 12.0173 10.728 12.274C10.728 12.5307 10.6473 12.736 10.486 12.89C10.3247 13.044 10.1047 13.121 9.826 13.121C9.562 13.121 9.34933 13.044 9.188 12.89C9.02667 12.736 8.946 12.5307 8.946 12.274Z" fill="#E04E39"/>
</svg>
