<svg width="41" height="40" viewBox="0 0 41 40" fill="none" xmlns="http://www.w3.org/2000/svg">
<g clip-path="url(#clip0_16_4)">
<path d="M20.2524 38.75C30.6077 38.75 39.0024 30.3553 39.0024 20C39.0024 9.64466 30.6077 1.25 20.2524 1.25C9.89706 1.25 1.5024 9.64466 1.5024 20C1.5024 30.3553 9.89706 38.75 20.2524 38.75Z" stroke="#623B2A" stroke-width="2" stroke-miterlimit="10" stroke-linejoin="round"/>
<path d="M32.7524 33.75C32.7524 26.8463 27.1561 21.25 20.2524 21.25C13.3486 21.25 7.7524 26.8463 7.7524 33.75" stroke="#623B2A" stroke-width="2" stroke-miterlimit="10" stroke-linejoin="round"/>
<path d="M20.2524 21.25C24.3945 21.25 27.7524 17.8921 27.7524 13.75C27.7524 9.60786 24.3945 6.25 20.2524 6.25C16.1103 6.25 12.7524 9.60786 12.7524 13.75C12.7524 17.8921 16.1103 21.25 20.2524 21.25Z" stroke="#623B2A" stroke-width="2" stroke-miterlimit="10" stroke-linejoin="round"/>
</g>
<defs>
<clipPath id="clip0_16_4">
<rect width="40" height="40" fill="white" transform="translate(0.252396)"/>
</clipPath>
</defs>
</svg>
