<svg width="250" height="79" viewBox="0 0 378 79" fill="none" xmlns="http://www.w3.org/2000/svg">
<path d="M86.0301 20.0399C82.7236 15.7583 76.0632 10.6555 63.1273 10.6555H54.9504L29.1611 47.404H27.3336C23.5972 47.404 20.4747 46.8388 18.0597 45.7552L6.37701 52.424C10.13 56.0882 16.5446 59.6391 27.3377 59.6391H35.5139L61.3025 22.885H63.1321C69.455 22.885 74.0378 24.4899 76.3875 27.5292C78.2102 29.8851 78.7351 33.255 77.8241 36.7745C76.016 43.7884 68.6002 47.4603 62.2017 47.4603H51.2655L30.0798 78.3272H44.8947L57.6828 59.6954H62.1989C77.5415 59.6954 87.18 49.4 89.6408 39.8312C91.4961 32.6251 90.1803 25.4093 86.0301 20.0399Z" fill="#EE030E"/>
<path d="M14.0796 42.7632C12.2583 40.4046 11.7333 37.0354 12.6408 33.5173C13.9726 28.3505 18.4978 22.8301 27.2058 22.8301H39.1981L54.5331 0.490906H39.7154L32.7801 10.597H27.2037C11.5083 10.597 3.18502 21.2968 0.824883 30.4585C-1.03323 37.6674 0.281197 44.8839 4.43071 50.2539C5.02747 51.0216 5.67713 51.7465 6.37492 52.4233L18.0576 45.7545C16.3814 45.0042 15.0399 44.0062 14.0796 42.7632Z" fill="#0990FE"/>
<mask id="mask0_93_80" style="mask-type:luminance" maskUnits="userSpaceOnUse" x="0" y="0" width="91" height="79">
<path d="M86.028 20.0401C82.7214 15.7585 76.0611 10.6557 63.1258 10.6557H54.949L29.1611 47.4041H27.3335C21.012 47.4041 16.4258 45.795 14.0788 42.7634C12.2575 40.4048 11.7326 37.0356 12.6401 33.5175C13.9719 28.3506 18.4964 22.8309 27.2044 22.8309H39.196L54.531 0.49176H39.7147L32.778 10.5979H27.2044C11.509 10.5979 3.18637 21.2977 0.826237 30.4587C-1.03118 37.6661 0.282551 44.8826 4.43276 50.2534C7.7407 54.535 14.3996 59.6378 27.3328 59.6378H35.5089L61.2969 22.8845H63.1244C69.4494 22.8845 74.0308 24.4887 76.3819 27.528C78.2039 29.8838 78.7288 33.2537 77.8185 36.7732C76.0104 43.7872 68.5925 47.4591 62.1961 47.4591H51.2626L30.0776 78.3245H44.8933L57.6806 59.6942H62.1968C77.5394 59.6942 87.1772 49.3987 89.6387 39.8299C91.494 32.6245 90.1782 25.4088 86.028 20.0401Z" fill="white"/>
</mask>
<g mask="url(#mask0_93_80)">
<path d="M86.839 11.9957L1.08522 57.2329L-12.0625 22.4401L68.7369 -11.5711L86.839 11.9957Z" fill="url(#paint0_linear_93_80)"/>
<path d="M59.4839 21.6042L88.8207 6.97363L98.0134 25.4912L68.6793 40.1239L59.4839 21.6042Z" fill="url(#paint1_linear_93_80)"/>
<path d="M23.7784 63.7758L95.7275 41.0337L103.09 64.4279L31.1414 87.1714L23.7784 63.7758Z" fill="url(#paint2_linear_93_80)"/>
<path d="M5.2514 54.4491L61.4948 23.4792L71.2158 41.5744L19.4858 70.1083L5.2514 54.4491Z" fill="url(#paint3_linear_93_80)"/>
</g>
<path d="M117.792 48.7129C117.312 49.0809 116.704 49.3369 115.968 49.4809C115.232 49.6249 114.448 49.6969 113.616 49.6969C112.608 49.6969 111.664 49.5289 110.784 49.1929C109.904 48.8409 109.136 48.3129 108.48 47.6089C107.824 46.9049 107.304 46.0089 106.92 44.9209C106.536 43.8169 106.344 42.5129 106.344 41.0089C106.344 39.4409 106.552 38.1129 106.968 37.0249C107.4 35.9209 107.96 35.0249 108.648 34.3369C109.352 33.6329 110.136 33.1209 111 32.8009C111.864 32.4809 112.744 32.3209 113.64 32.3209C114.6 32.3209 115.384 32.3769 115.992 32.4889C116.6 32.5849 117.12 32.7209 117.552 32.8969L117.072 34.6489C116.304 34.2809 115.208 34.0969 113.784 34.0969C113.128 34.0969 112.48 34.2169 111.84 34.4569C111.2 34.6969 110.624 35.0889 110.112 35.6329C109.616 36.1769 109.216 36.8889 108.912 37.7689C108.608 38.6489 108.456 39.7289 108.456 41.0089C108.456 42.1609 108.6 43.1689 108.888 44.0329C109.176 44.8969 109.568 45.6169 110.064 46.1929C110.576 46.7689 111.168 47.2009 111.84 47.4889C112.528 47.7769 113.272 47.9209 114.072 47.9209C114.792 47.9209 115.416 47.8489 115.944 47.7049C116.488 47.5609 116.944 47.3769 117.312 47.1529L117.792 48.7129ZM119.043 43.4089C119.043 41.3769 119.491 39.8249 120.387 38.7529C121.299 37.6649 122.603 37.1209 124.299 37.1209C125.195 37.1209 125.971 37.2729 126.627 37.5769C127.299 37.8649 127.851 38.2889 128.283 38.8489C128.715 39.3929 129.035 40.0569 129.243 40.8409C129.451 41.6089 129.555 42.4649 129.555 43.4089C129.555 45.4409 129.099 47.0009 128.187 48.0889C127.291 49.1609 125.995 49.6969 124.299 49.6969C123.403 49.6969 122.619 49.5529 121.947 49.2649C121.291 48.9609 120.747 48.5369 120.315 47.9929C119.883 47.4329 119.563 46.7689 119.355 46.0009C119.147 45.2169 119.043 44.3529 119.043 43.4089ZM121.035 43.4089C121.035 44.0169 121.091 44.6009 121.203 45.1609C121.331 45.7209 121.523 46.2089 121.779 46.6249C122.035 47.0409 122.371 47.3769 122.787 47.6329C123.203 47.8889 123.707 48.0169 124.299 48.0169C126.475 48.0329 127.563 46.4969 127.563 43.4089C127.563 42.7849 127.499 42.1929 127.371 41.6329C127.259 41.0729 127.075 40.5849 126.819 40.1689C126.563 39.7529 126.227 39.4249 125.811 39.1849C125.395 38.9289 124.891 38.8009 124.299 38.8009C122.123 38.7849 121.035 40.3209 121.035 43.4089ZM143.358 52.4569H142.062L141.702 49.4089H132.582V37.4089H134.502V47.7289H139.71V37.4089H141.63V47.7289H143.358V52.4569ZM153.219 42.3049L153.291 40.8169H153.219L152.235 42.3529L146.835 49.4089H145.731V37.4089H147.651V44.7289L147.579 46.1449H147.675L148.611 44.6569L154.011 37.4089H155.139V49.4089H153.219V42.3049ZM158.64 38.2969C159.248 37.9289 159.952 37.6569 160.752 37.4809C161.568 37.3049 162.416 37.2169 163.296 37.2169C164.128 37.2169 164.792 37.3289 165.288 37.5529C165.8 37.7769 166.184 38.0729 166.44 38.4409C166.712 38.7929 166.888 39.1849 166.968 39.6169C167.064 40.0489 167.112 40.4809 167.112 40.9129C167.112 41.8729 167.088 42.8089 167.04 43.7209C166.992 44.6329 166.968 45.4969 166.968 46.3129C166.968 46.9049 166.992 47.4649 167.04 47.9929C167.088 48.5209 167.176 49.0089 167.304 49.4569H165.888L165.384 47.7769H165.264C165.12 48.0009 164.936 48.2249 164.712 48.4489C164.504 48.6569 164.248 48.8489 163.944 49.0249C163.64 49.1849 163.288 49.3209 162.888 49.4329C162.488 49.5449 162.032 49.6009 161.52 49.6009C161.008 49.6009 160.528 49.5209 160.08 49.3609C159.648 49.2009 159.272 48.9769 158.952 48.6889C158.632 48.3849 158.376 48.0249 158.184 47.6089C158.008 47.1929 157.92 46.7209 157.92 46.1929C157.92 45.4889 158.064 44.9049 158.352 44.4409C158.64 43.9609 159.04 43.5849 159.552 43.3129C160.08 43.0249 160.704 42.8249 161.424 42.7129C162.16 42.5849 162.968 42.5209 163.848 42.5209C164.072 42.5209 164.288 42.5209 164.496 42.5209C164.72 42.5209 164.944 42.5369 165.168 42.5689C165.216 42.0889 165.24 41.6569 165.24 41.2729C165.24 40.3929 165.064 39.7769 164.712 39.4249C164.36 39.0729 163.72 38.8969 162.792 38.8969C162.52 38.8969 162.224 38.9209 161.904 38.9689C161.6 39.0009 161.28 39.0569 160.944 39.1369C160.624 39.2009 160.312 39.2889 160.008 39.4009C159.72 39.4969 159.464 39.6089 159.24 39.7369L158.64 38.2969ZM162.048 47.9209C162.496 47.9209 162.896 47.8649 163.248 47.7529C163.6 47.6249 163.904 47.4729 164.16 47.2969C164.416 47.1049 164.624 46.8969 164.784 46.6729C164.96 46.4489 165.088 46.2329 165.168 46.0249V44.0329C164.944 44.0169 164.712 44.0089 164.472 44.0089C164.248 43.9929 164.024 43.9849 163.8 43.9849C163.304 43.9849 162.816 44.0169 162.336 44.0809C161.872 44.1289 161.456 44.2329 161.088 44.3929C160.736 44.5369 160.448 44.7449 160.224 45.0169C160.016 45.2729 159.912 45.6009 159.912 46.0009C159.912 46.5609 160.112 47.0249 160.512 47.3929C160.912 47.7449 161.424 47.9209 162.048 47.9209ZM177.195 39.0889H173.715C173.667 39.7609 173.619 40.4889 173.571 41.2729C173.523 42.0409 173.451 42.8169 173.355 43.6009C173.259 44.3689 173.131 45.1129 172.971 45.8329C172.811 46.5369 172.603 47.1609 172.347 47.7049C172.107 48.2489 171.803 48.6889 171.435 49.0249C171.083 49.3449 170.659 49.5049 170.163 49.5049C169.859 49.5049 169.595 49.4889 169.371 49.4569C169.147 49.4249 168.947 49.3689 168.771 49.2889L169.059 47.6809C169.251 47.7449 169.459 47.7769 169.683 47.7769C170.003 47.7769 170.291 47.6409 170.547 47.3689C170.803 47.0969 171.027 46.5849 171.219 45.8329C171.411 45.0649 171.571 44.0089 171.699 42.6649C171.827 41.3209 171.915 39.5689 171.963 37.4089H179.115V49.4089H177.195V39.0889ZM184.729 47.7289C185.321 47.8249 185.889 47.8729 186.433 47.8729C187.441 47.8729 188.185 47.6809 188.665 47.2969C189.145 46.8969 189.385 46.3369 189.385 45.6169C189.385 44.9769 189.153 44.4489 188.689 44.0329C188.225 43.6169 187.497 43.4089 186.505 43.4089C186.233 43.4089 185.937 43.4169 185.617 43.4329C185.297 43.4489 185.001 43.4969 184.729 43.5769V47.7289ZM184.729 41.9929C185.113 41.9289 185.481 41.8889 185.833 41.8729C186.185 41.8409 186.521 41.8249 186.841 41.8249C187.673 41.8249 188.377 41.9209 188.953 42.1129C189.529 42.2889 189.993 42.5369 190.345 42.8569C190.713 43.1769 190.977 43.5609 191.137 44.0089C191.297 44.4409 191.377 44.9049 191.377 45.4009C191.377 46.8569 190.937 47.9129 190.057 48.5689C189.193 49.2249 187.841 49.5529 186.001 49.5529C184.977 49.5529 183.913 49.5049 182.809 49.4089V37.4089H184.729V41.9929ZM201.286 44.1049H195.862V49.4089H193.942V37.4089H195.862V42.4249H201.286V37.4089H203.206V49.4089H201.286V44.1049ZM208.823 47.7289C209.415 47.8249 209.983 47.8729 210.527 47.8729C211.535 47.8729 212.239 47.6809 212.639 47.2969C213.039 46.8969 213.239 46.3369 213.239 45.6169C213.239 44.9769 213.039 44.4489 212.639 44.0329C212.255 43.6169 211.575 43.4089 210.599 43.4089C210.327 43.4089 210.031 43.4169 209.711 43.4329C209.391 43.4489 209.095 43.4969 208.823 43.5769V47.7289ZM208.823 41.9929C209.207 41.9289 209.575 41.8889 209.927 41.8729C210.279 41.8409 210.615 41.8249 210.935 41.8249C211.751 41.8249 212.431 41.9209 212.975 42.1129C213.535 42.2889 213.983 42.5369 214.319 42.8569C214.655 43.1769 214.887 43.5609 215.015 44.0089C215.159 44.4409 215.231 44.9049 215.231 45.4009C215.231 46.8569 214.823 47.9129 214.007 48.5689C213.207 49.2249 211.903 49.5529 210.095 49.5529C209.071 49.5529 208.007 49.5049 206.903 49.4089V37.4089H208.823V41.9929ZM217.127 37.4089H219.047V49.4089H217.127V37.4089ZM230.234 42.3049L230.306 40.8169H230.234L229.25 42.3529L223.85 49.4089H222.746V37.4089H224.666V44.7289L224.594 46.1449H224.69L225.626 44.6569L231.026 37.4089H232.154V49.4089H230.234V42.3049ZM225.506 32.5609C225.666 33.2969 225.938 33.8089 226.322 34.0969C226.722 34.3849 227.178 34.5289 227.69 34.5289C228.202 34.5289 228.658 34.3769 229.058 34.0729C229.458 33.7689 229.73 33.2729 229.874 32.5849L231.314 33.0409C231.17 33.9689 230.754 34.6809 230.066 35.1769C229.394 35.6729 228.586 35.9209 227.642 35.9209C227.21 35.9209 226.778 35.8649 226.346 35.7529C225.93 35.6409 225.554 35.4729 225.218 35.2489C224.882 35.0249 224.594 34.7369 224.354 34.3849C224.114 34.0329 223.954 33.6169 223.874 33.1369L225.506 32.5609ZM247.646 49.5049C247.374 49.6009 247.086 49.6569 246.782 49.6729C246.494 49.6889 246.23 49.6969 245.99 49.6969C244.534 49.6969 243.414 49.1849 242.63 48.1609C241.846 47.1369 241.454 45.5529 241.454 43.4089C241.454 41.3609 241.886 39.8169 242.75 38.7769C243.614 37.7369 244.862 37.2169 246.494 37.2169C246.942 37.2169 247.326 37.2489 247.646 37.3129V32.6089H249.47V37.3369C249.758 37.2889 250.014 37.2569 250.238 37.2409C250.462 37.2249 250.678 37.2169 250.886 37.2169C252.47 37.2169 253.662 37.6809 254.462 38.6089C255.262 39.5209 255.662 41.0409 255.662 43.1689C255.662 44.1769 255.55 45.0889 255.326 45.9049C255.118 46.7049 254.806 47.3849 254.39 47.9449C253.974 48.5049 253.462 48.9369 252.854 49.2409C252.262 49.5449 251.574 49.6969 250.79 49.6969C250.646 49.6969 250.43 49.6809 250.142 49.6489C249.87 49.6329 249.646 49.5929 249.47 49.5289V54.2089H247.646V49.5049ZM250.526 38.8009C250.334 38.8009 250.158 38.8089 249.998 38.8249C249.854 38.8249 249.67 38.8569 249.446 38.9209V48.0409C249.606 48.0729 249.782 48.0969 249.974 48.1129C250.182 48.1129 250.406 48.1129 250.646 48.1129C251.67 48.1129 252.438 47.6889 252.95 46.8409C253.478 45.9929 253.742 44.7689 253.742 43.1689C253.742 41.8089 253.502 40.7449 253.022 39.9769C252.558 39.1929 251.726 38.8009 250.526 38.8009ZM246.47 48.1129C246.662 48.1129 246.854 48.1049 247.046 48.0889C247.238 48.0729 247.446 48.0409 247.67 47.9929V38.8969C247.478 38.8649 247.294 38.8409 247.118 38.8249C246.958 38.8089 246.758 38.8009 246.518 38.8009C245.526 38.8009 244.75 39.1769 244.19 39.9289C243.646 40.6649 243.374 41.8249 243.374 43.4089C243.374 44.0809 243.43 44.7049 243.542 45.2809C243.67 45.8569 243.862 46.3609 244.118 46.7929C244.374 47.2089 244.694 47.5369 245.078 47.7769C245.478 48.0009 245.942 48.1129 246.47 48.1129ZM257.887 43.4089C257.887 41.3769 258.335 39.8249 259.231 38.7529C260.143 37.6649 261.447 37.1209 263.143 37.1209C264.039 37.1209 264.815 37.2729 265.471 37.5769C266.143 37.8649 266.695 38.2889 267.127 38.8489C267.559 39.3929 267.879 40.0569 268.087 40.8409C268.295 41.6089 268.399 42.4649 268.399 43.4089C268.399 45.4409 267.943 47.0009 267.031 48.0889C266.135 49.1609 264.839 49.6969 263.143 49.6969C262.247 49.6969 261.463 49.5529 260.791 49.2649C260.135 48.9609 259.591 48.5369 259.159 47.9929C258.727 47.4329 258.407 46.7689 258.199 46.0009C257.991 45.2169 257.887 44.3529 257.887 43.4089ZM259.879 43.4089C259.879 44.0169 259.935 44.6009 260.047 45.1609C260.175 45.7209 260.367 46.2089 260.623 46.6249C260.879 47.0409 261.215 47.3769 261.631 47.6329C262.047 47.8889 262.551 48.0169 263.143 48.0169C265.319 48.0329 266.407 46.4969 266.407 43.4089C266.407 42.7849 266.343 42.1929 266.215 41.6329C266.103 41.0729 265.919 40.5849 265.663 40.1689C265.407 39.7529 265.071 39.4249 264.655 39.1849C264.239 38.9289 263.735 38.8009 263.143 38.8009C260.967 38.7849 259.879 40.3209 259.879 43.4089ZM278.77 44.1049H273.346V49.4089H271.426V37.4089H273.346V42.4249H278.77V37.4089H280.69V49.4089H278.77V44.1049ZM294.995 52.4569H293.699L293.339 49.4089H284.315L283.955 52.4569H282.659V47.7289H284.075C284.203 47.5529 284.371 47.2409 284.579 46.7929C284.787 46.3289 284.987 45.6889 285.179 44.8729C285.387 44.0409 285.563 43.0169 285.707 41.8009C285.867 40.5689 285.963 39.1049 285.995 37.4089H293.243V47.7289H294.995V52.4569ZM291.323 47.7289V39.0889H287.723C287.691 39.7609 287.635 40.4969 287.555 41.2969C287.475 42.0809 287.363 42.8729 287.219 43.6729C287.091 44.4569 286.923 45.2009 286.715 45.9049C286.507 46.6089 286.267 47.2169 285.995 47.7289H291.323ZM303.962 32.7769C304.57 32.6329 305.226 32.5369 305.93 32.4889C306.634 32.4409 307.33 32.4169 308.018 32.4169C308.754 32.4169 309.498 32.4889 310.25 32.6329C311.018 32.7769 311.714 33.0409 312.338 33.4249C312.962 33.8089 313.466 34.3369 313.85 35.0089C314.25 35.6809 314.45 36.5369 314.45 37.5769C314.45 38.6009 314.266 39.4649 313.898 40.1689C313.53 40.8729 313.042 41.4489 312.434 41.8969C311.826 42.3289 311.13 42.6409 310.346 42.8329C309.562 43.0249 308.754 43.1209 307.922 43.1209C307.842 43.1209 307.706 43.1209 307.514 43.1209C307.338 43.1209 307.146 43.1209 306.938 43.1209C306.746 43.1049 306.554 43.0889 306.362 43.0729C306.17 43.0569 306.034 43.0409 305.954 43.0249V49.4089H303.962V32.7769ZM308.066 34.1449C307.65 34.1449 307.25 34.1529 306.866 34.1689C306.482 34.1849 306.178 34.2249 305.954 34.2889V41.2489C306.034 41.2809 306.162 41.3049 306.338 41.3209C306.514 41.3209 306.698 41.3289 306.89 41.3449C307.082 41.3449 307.266 41.3449 307.442 41.3449C307.618 41.3449 307.746 41.3449 307.826 41.3449C308.37 41.3449 308.906 41.2969 309.434 41.2009C309.978 41.0889 310.466 40.8969 310.898 40.6249C311.33 40.3529 311.674 39.9689 311.93 39.4729C312.202 38.9769 312.338 38.3449 312.338 37.5769C312.338 36.9209 312.21 36.3769 311.954 35.9449C311.714 35.4969 311.386 35.1449 310.97 34.8889C310.57 34.6169 310.114 34.4249 309.602 34.3129C309.09 34.2009 308.578 34.1449 308.066 34.1449ZM315.637 43.4089C315.637 41.3769 316.085 39.8249 316.981 38.7529C317.893 37.6649 319.197 37.1209 320.893 37.1209C321.789 37.1209 322.565 37.2729 323.221 37.5769C323.893 37.8649 324.445 38.2889 324.877 38.8489C325.309 39.3929 325.629 40.0569 325.837 40.8409C326.045 41.6089 326.149 42.4649 326.149 43.4089C326.149 45.4409 325.693 47.0009 324.781 48.0889C323.885 49.1609 322.589 49.6969 320.893 49.6969C319.997 49.6969 319.213 49.5529 318.541 49.2649C317.885 48.9609 317.341 48.5369 316.909 47.9929C316.477 47.4329 316.157 46.7689 315.949 46.0009C315.741 45.2169 315.637 44.3529 315.637 43.4089ZM317.629 43.4089C317.629 44.0169 317.685 44.6009 317.797 45.1609C317.925 45.7209 318.117 46.2089 318.373 46.6249C318.629 47.0409 318.965 47.3769 319.381 47.6329C319.797 47.8889 320.301 48.0169 320.893 48.0169C323.069 48.0329 324.157 46.4969 324.157 43.4089C324.157 42.7849 324.093 42.1929 323.965 41.6329C323.853 41.0729 323.669 40.5849 323.413 40.1689C323.157 39.7529 322.821 39.4249 322.405 39.1849C321.989 38.9289 321.485 38.8009 320.893 38.8009C318.717 38.7849 317.629 40.3209 317.629 43.4089ZM337.36 48.6169C336.88 48.9689 336.312 49.2329 335.656 49.4089C335 49.6009 334.312 49.6969 333.592 49.6969C332.664 49.6969 331.88 49.5529 331.24 49.2649C330.6 48.9609 330.072 48.5369 329.656 47.9929C329.256 47.4329 328.96 46.7689 328.768 46.0009C328.592 45.2169 328.504 44.3529 328.504 43.4089C328.504 41.3769 328.952 39.8249 329.848 38.7529C330.744 37.6649 332.032 37.1209 333.712 37.1209C334.48 37.1209 335.128 37.1849 335.656 37.3129C336.2 37.4249 336.688 37.5929 337.12 37.8169L336.568 39.4729C336.2 39.2649 335.792 39.1049 335.344 38.9929C334.896 38.8649 334.416 38.8009 333.904 38.8009C331.632 38.8009 330.496 40.3369 330.496 43.4089C330.496 44.0169 330.552 44.6009 330.664 45.1609C330.792 45.7049 330.992 46.1929 331.264 46.6249C331.552 47.0409 331.92 47.3769 332.368 47.6329C332.832 47.8889 333.4 48.0169 334.072 48.0169C334.648 48.0169 335.16 47.9289 335.608 47.7529C336.072 47.5769 336.448 47.3769 336.736 47.1529L337.36 48.6169ZM347.626 48.6169C347.146 48.9689 346.578 49.2329 345.922 49.4089C345.266 49.6009 344.578 49.6969 343.858 49.6969C342.93 49.6969 342.146 49.5529 341.506 49.2649C340.866 48.9609 340.338 48.5369 339.922 47.9929C339.522 47.4329 339.226 46.7689 339.034 46.0009C338.858 45.2169 338.77 44.3529 338.77 43.4089C338.77 41.3769 339.218 39.8249 340.114 38.7529C341.01 37.6649 342.298 37.1209 343.978 37.1209C344.746 37.1209 345.394 37.1849 345.922 37.3129C346.466 37.4249 346.954 37.5929 347.386 37.8169L346.834 39.4729C346.466 39.2649 346.058 39.1049 345.61 38.9929C345.162 38.8649 344.682 38.8009 344.17 38.8009C341.898 38.8009 340.762 40.3369 340.762 43.4089C340.762 44.0169 340.818 44.6009 340.93 45.1609C341.058 45.7049 341.258 46.1929 341.53 46.6249C341.818 47.0409 342.186 47.3769 342.634 47.6329C343.098 47.8889 343.666 48.0169 344.338 48.0169C344.914 48.0169 345.426 47.9289 345.874 47.7529C346.338 47.5769 346.714 47.3769 347.002 47.1529L347.626 48.6169ZM357.758 42.3049L357.83 40.8169H357.758L356.774 42.3529L351.374 49.4089H350.27V37.4089H352.19V44.7289L352.118 46.1449H352.214L353.15 44.6569L358.55 37.4089H359.678V49.4089H357.758V42.3049ZM370.859 42.3049L370.931 40.8169H370.859L369.875 42.3529L364.475 49.4089H363.371V37.4089H365.291V44.7289L365.219 46.1449H365.315L366.251 44.6569L371.651 37.4089H372.779V49.4089H370.859V42.3049Z" fill="black"/>
<defs>
<linearGradient id="paint0_linear_93_80" x1="31.4465" y1="4.74326" x2="44.3155" y2="35.314" gradientUnits="userSpaceOnUse">
<stop offset="0.036" stop-color="#0991FF"/>
<stop offset="0.158" stop-color="#0990FE"/>
<stop offset="0.398" stop-color="#106CEF"/>
<stop offset="0.639" stop-color="#164FE4"/>
<stop offset="0.848" stop-color="#1A3DDD"/>
<stop offset="1" stop-color="#1B37DA"/>
</linearGradient>
<linearGradient id="paint1_linear_93_80" x1="83.2033" y1="32.5189" x2="74.9697" y2="16.005" gradientUnits="userSpaceOnUse">
<stop offset="0.01" stop-color="#E60F2F"/>
<stop offset="0.087" stop-color="#E40F37"/>
<stop offset="0.21" stop-color="#DF104E"/>
<stop offset="0.362" stop-color="#D61174"/>
<stop offset="0.474" stop-color="#CE1294"/>
<stop offset="0.533" stop-color="#C41498"/>
<stop offset="0.63" stop-color="#AA19A2"/>
<stop offset="0.756" stop-color="#8022B3"/>
<stop offset="0.902" stop-color="#462EC9"/>
<stop offset="1" stop-color="#1B37DA"/>
</linearGradient>
<linearGradient id="paint2_linear_93_80" x1="64.1379" y1="70.2496" x2="61.3762" y2="54.201" gradientUnits="userSpaceOnUse">
<stop offset="0.117" stop-color="#CC0A1E"/>
<stop offset="1" stop-color="#EE030E"/>
</linearGradient>
<linearGradient id="paint3_linear_93_80" x1="43.1542" y1="59.3058" x2="33.8971" y2="38.1569" gradientUnits="userSpaceOnUse">
<stop offset="0.179" stop-color="#E60F2F"/>
<stop offset="0.228" stop-color="#DC0D3A"/>
<stop offset="0.316" stop-color="#C20958"/>
<stop offset="0.43" stop-color="#980388"/>
<stop offset="0.474" stop-color="#86009C"/>
<stop offset="0.514" stop-color="#7907A4"/>
<stop offset="0.649" stop-color="#501CBB"/>
<stop offset="0.771" stop-color="#332BCC"/>
<stop offset="0.877" stop-color="#2134D6"/>
<stop offset="0.954" stop-color="#1B37DA"/>
</linearGradient>
</defs>
</svg>
