<svg width="162" height="68" viewBox="0 0 162 68" fill="none" xmlns="http://www.w3.org/2000/svg">
<g clip-path="url(#clip0)">
<path d="M106.016 30.6205V18.8411H109.975C109.975 18.8411 109.975 23.9247 109.975 24.3266C109.975 24.7265 109.888 25.1827 109.888 25.1827H110.06L114.369 18.842H118.156L118.155 30.6205H114.198V25.0863C114.198 24.6903 114.283 24.3141 114.283 24.3141H114.111L109.804 30.6205H106.016Z" fill="#663A2A"/>
<path d="M97.8071 18.5275C101.572 18.5275 104.379 21.1866 104.379 24.7481C104.379 28.2758 101.572 30.9346 97.8071 30.9346C94.0811 30.9346 91.2725 28.2758 91.2725 24.7481C91.2725 21.1863 94.0811 18.5275 97.8071 18.5275ZM97.808 27.2654C99.2465 27.2654 100.204 26.1492 100.204 24.7481C100.204 23.3138 99.2462 22.1961 97.808 22.1961C96.4061 22.1961 95.4117 23.3136 95.4117 24.7481C95.4114 26.1489 96.4061 27.2654 97.808 27.2654Z" fill="#663A2A"/>
<path d="M19.3702 32.6599C23.0677 32.6599 25.683 35.3161 25.683 38.8974C25.683 42.4311 23.068 45.0656 19.3702 45.0656C15.7155 45.0656 13.0768 42.4311 13.0768 38.8974C13.0768 35.3161 15.7155 32.6599 19.3702 32.6599ZM19.3702 42.9039C21.7505 42.9039 23.3737 41.1712 23.3737 38.8974C23.3737 36.5771 21.7508 34.8222 19.3702 34.8222C17.0337 34.8222 15.4092 36.5771 15.4092 38.8974C15.4089 41.1712 17.0334 42.9039 19.3702 42.9039Z" fill="#663A2A"/>
<path d="M78.1573 39.6319C78.1802 39.3911 78.1942 39.1475 78.1942 38.8974C78.1942 35.3161 76.3404 32.6599 72.4563 32.6599C69.1364 32.6599 66.7365 35.3161 66.7365 38.8974C66.7365 39.1475 66.752 39.3911 66.7745 39.6319H66.7707C67.0392 42.7046 69.0086 45.0703 73.1319 45.0703C75.1229 45.0703 76.8163 44.4607 78.0373 43.4687L77.1086 41.7755C76.2049 42.453 74.8273 43.0846 73.2002 43.0846C70.6239 43.0846 69.3794 41.685 69.1545 39.6319H69.1631H78.1573ZM72.5721 34.6163C74.6951 34.6163 75.805 35.9957 75.9919 37.8031H69.1889C69.5264 35.9358 70.8208 34.6163 72.5721 34.6163Z" fill="#663A2A"/>
<path d="M88.4807 32.9758V37.8025H82.1656V32.9758H79.8181V44.755H82.1656V39.6275H88.4807V44.755H90.828V32.9758H88.4807Z" fill="#663A2A"/>
<path d="M103.2 32.9758H92.4518V35.0654H96.6509V44.755H98.9993V35.0654H103.2V32.9758Z" fill="#663A2A"/>
<path d="M118.155 32.9755H115.807V44.7547H118.155V32.9755Z" fill="#663A2A"/>
<path d="M32.4559 38.5575V38.4545C32.4559 38.4545 32.6721 38.3833 32.8697 38.1588C33.0655 37.9378 37.3676 32.9755 37.3676 32.9755H34.7321L30.5896 37.8022H29.6532V32.9755H27.3056V44.7547H29.6532V39.6272H30.7182L35.1885 44.7547L38.1124 44.7529C38.1124 44.7529 33.1008 39.1083 32.8852 38.8645C32.6793 38.6305 32.4559 38.5575 32.4559 38.5575Z" fill="#663A2A"/>
<path d="M108.986 36.5765C107.887 36.5765 107.171 36.7162 107.171 36.7162V32.9758H104.823V44.7576C104.823 44.7576 106.752 44.9457 108.748 44.9457C112.439 44.9457 113.652 42.7001 113.652 40.6346C113.652 38.5382 112.567 36.5765 108.986 36.5765ZM108.565 42.9825C107.836 42.9825 107.171 42.9262 107.171 42.9262V38.6779C107.171 38.6779 107.685 38.5385 108.592 38.5385C110.559 38.5385 111.423 39.2976 111.423 40.7114C111.423 42.0988 110.644 42.9825 108.565 42.9825Z" fill="#663A2A"/>
<path d="M9.20251 32.9758L9.14012 34.4611H8.9895C8.24144 33.3526 6.74502 32.6599 5.57243 32.6599C2.13278 32.6599 0.0855702 35.3161 0.00238646 38.8974C-0.0781235 42.4311 1.99315 45.0656 5.4328 45.0656C7.01002 45.0656 7.99367 44.6194 8.95474 43.4797H9.10566V44.5343C9.10566 46.8137 7.52338 47.7173 5.73701 47.7173C4.09413 47.7173 2.81489 47.0982 2.03148 46.628L1.2647 48.5743C2.00949 48.9569 3.40906 49.7917 5.73672 49.7917C9.03584 49.7917 11.4538 47.8285 11.4538 44.0608V32.9755H9.20251V32.9758ZM5.85109 42.9039C3.48214 42.9039 2.22785 41.1712 2.27984 38.8974C2.33361 36.5771 3.66722 34.8222 6.03469 34.8222C7.34157 34.8222 9.10536 36.0156 9.10536 38.1745V41.4249C8.37126 42.335 7.23165 42.9039 5.85109 42.9039Z" fill="#663A2A"/>
<path d="M47.4236 32.9758V41.5135C46.735 42.3723 45.6776 42.9042 44.3431 42.9042C42.186 42.9042 41.1988 41.1715 41.2526 38.8977V32.9726H38.9739V38.8977C38.8937 42.432 40.3105 45.0659 43.749 45.0659C45.3241 45.0659 46.3927 44.5995 47.2727 43.48H47.4236V44.5349C47.4236 46.814 45.8401 47.7176 44.055 47.7176C42.4112 47.7176 41.1322 47.0988 40.3482 46.6283L39.5812 48.5752C40.3274 48.9572 41.727 49.7926 44.055 49.7926C47.3538 49.7926 49.7709 47.8291 49.7709 44.0614V32.9761H47.4236V32.9758Z" fill="#663A2A"/>
<path d="M62.8887 32.9758C62.8887 32.9758 59.0061 38.4275 58.8932 38.5886C58.7797 38.7506 58.7423 38.9057 58.7423 38.9057H58.6564C58.6564 38.9057 58.6092 38.7512 58.4844 38.5886C58.3605 38.427 54.19 32.9758 54.19 32.9758H51.9747V44.755H54.3231V37.2428C54.3231 36.7192 54.2141 36.4234 54.2141 36.4234H54.3231L58.6445 42.2207H58.7437L62.7523 36.4234H62.8616C62.8616 36.4234 62.7523 36.7328 62.7523 37.2362V44.755H65.0999V32.9758H62.8887Z" fill="#663A2A"/>
<path d="M86.5265 18.8411C86.5265 18.8411 83.2214 23.132 83.0868 23.2955C82.9252 23.4957 82.9104 23.6028 82.9104 23.6028H82.7395C82.7395 23.6028 82.7072 23.488 82.5512 23.2946C82.3186 23.0071 78.8932 18.8411 78.8932 18.8411H75.7714V30.6205H79.5869V25.6746C79.5869 25.1427 79.5013 24.8179 79.5013 24.8179H79.6727L82.7395 28.3349H82.9047L85.7475 24.8179H85.9198C85.9198 24.8179 85.8328 25.1364 85.8328 25.6746V30.6205H89.6506V18.8411H86.5265Z" fill="#663A2A"/>
<path d="M138.41 28.4402V16.4884H128.975V28.4342C128.975 32.6433 131.224 36.5317 134.873 38.6343L145.488 44.7544V33.8794L139.591 30.4805C138.86 30.0589 138.41 29.2817 138.41 28.4402Z" fill="#C59368"/>
<path d="M145.488 40.0425L156.102 33.9242C159.751 31.8195 162 27.9314 162 23.722V0H145.488V9.42201H152.564L152.565 23.7294C152.565 24.571 152.115 25.3485 151.384 25.7683L145.488 29.1684V40.0425Z" fill="#E84B37"/>
<path d="M145.488 0L128.975 16.4887H145.488V0Z" fill="#663A2A"/>
<path d="M30.4191 63.0855L30.4797 62.3282H30.4399L30.089 63.165L28.4013 65.957H27.9325V60.9716H28.6523V63.9336L28.5917 64.6595H28.6315L28.9607 63.8434L30.6692 60.9716H31.138V65.957H30.4191V63.0855Z" fill="#E84B37"/>
<path d="M38.1468 62.995L38.2181 62.049H38.1774L37.8768 62.8965L36.9487 64.8096H36.6888L35.7223 62.8965L35.4514 62.049H35.4018L35.4817 62.9852V65.957H34.8323V60.971H35.5518L36.6394 63.1353L36.8596 63.7826H36.8792L37.1183 63.114L38.1278 60.971H38.8655V65.957H38.1468V62.995Z" fill="#E84B37"/>
<path d="M41.4811 64.1917L41.6914 65.159H41.7407L41.8913 64.1917L42.6492 60.9719H43.3792L42.1893 65.4477C42.0966 65.8072 42.0042 66.1418 41.911 66.4557C41.8168 66.768 41.7161 67.038 41.6073 67.2673C41.4971 67.496 41.3735 67.6761 41.2375 67.8054C41.0999 67.9353 40.9386 67.9997 40.7532 67.9997C40.5663 67.9997 40.4032 67.97 40.2633 67.9098L40.3836 67.2317C40.4766 67.2649 40.569 67.2711 40.6635 67.2516C40.7562 67.2317 40.8435 67.1753 40.9264 67.0828C41.0111 66.9899 41.0874 66.8505 41.1567 66.6681C41.2262 66.4859 41.2883 66.2486 41.3411 65.9567L39.7235 60.9716H40.542L41.4811 64.1917Z" fill="#E84B37"/>
<path d="M46.6441 63.7334H44.9157V65.9576H44.1967V60.971H44.9157V63.0858H46.6441V60.971H47.363V65.9576H46.6441V63.7334Z" fill="#E84B37"/>
<path d="M51.2165 63.0855L51.2753 62.3282H51.2355L50.8861 63.165L49.2002 65.957H48.7293V60.9716H49.4483V63.9336L49.3894 64.6595H49.4289L49.7581 63.8434L51.4658 60.9716H51.9354V65.957H51.2165V63.0855Z" fill="#E84B37"/>
<path d="M56.977 67.2225H56.4791L56.3585 65.957H53.314V60.9719H54.0323V65.308H55.6797V60.9719H56.3986V65.308H56.977V67.2225Z" fill="#E84B37"/>
<path d="M60.4116 63.0855L60.471 62.3282H60.4312L60.0806 63.165L58.3952 65.957H57.9261V60.9716H58.6448V63.9336L58.5842 64.6595H58.624L58.9541 63.8434L60.6611 60.9716H61.1311V65.957H60.4116V63.0855Z" fill="#E84B37"/>
<path d="M64.9041 61.6192H63.2268V65.957H62.509V60.9719H65.6237V65.957H64.9041V61.6192Z" fill="#E84B37"/>
<path d="M66.9513 61.2715C67.1444 61.1517 67.3788 61.0588 67.6554 60.9915C67.9317 60.9253 68.2216 60.8927 68.5276 60.8927C68.8092 60.8927 69.0324 60.9339 69.2032 61.0176C69.3728 61.0998 69.5062 61.2113 69.6013 61.3558C69.6984 61.4987 69.7626 61.6622 69.792 61.8434C69.8217 62.0268 69.8372 62.2187 69.8372 62.4175C69.8372 62.8161 69.8282 63.2056 69.8113 63.585C69.7938 63.9624 69.7852 64.3219 69.7852 64.6604C69.7852 64.914 69.7938 65.1487 69.8113 65.3625C69.8285 65.5806 69.8615 65.7844 69.9076 65.9778H69.3437L69.1699 65.3886H69.131C69.0312 65.5619 68.8859 65.7108 68.6943 65.8375C68.5026 65.9641 68.246 66.0261 67.921 66.0261C67.5651 66.0261 67.2721 65.903 67.0437 65.6524C66.8167 65.4032 66.7017 65.06 66.7017 64.6215C66.7017 64.3355 66.751 64.0962 66.8464 63.9024C66.9415 63.7111 67.0775 63.5536 67.2516 63.4343C67.4266 63.3148 67.6349 63.2294 67.877 63.1804C68.1179 63.1306 68.3862 63.106 68.6824 63.106H68.8805C68.9474 63.106 69.0166 63.1083 69.0897 63.1146C69.1087 62.909 69.1191 62.7257 69.1191 62.5676C69.1191 62.1884 69.0621 61.9235 68.9512 61.7693C68.8395 61.6165 68.6343 61.5406 68.3381 61.5406C68.153 61.5406 67.9513 61.5685 67.7344 61.6257C67.516 61.6821 67.3354 61.753 67.1898 61.8396L66.9513 61.2715ZM69.098 63.6835C69.0312 63.6773 68.9652 63.672 68.9013 63.6684C68.8345 63.6654 68.7688 63.6637 68.7023 63.6637C68.5454 63.6637 68.3912 63.677 68.2379 63.7031C68.087 63.7304 67.9533 63.7761 67.8354 63.8437C67.7169 63.9099 67.6227 63.9986 67.5529 64.1116C67.4848 64.2252 67.4516 64.3676 67.4516 64.5411C67.4516 64.8069 67.5145 65.0122 67.6423 65.159C67.7706 65.305 67.937 65.378 68.1414 65.378C68.4168 65.378 68.6313 65.3112 68.7822 65.1792C68.9346 65.0457 69.0383 64.8998 69.0983 64.7402V63.6835H69.098Z" fill="#E84B37"/>
<path d="M73.3612 61.6192H72.273C72.2528 62.1852 72.2252 62.7316 72.1928 63.2593C72.1595 63.7871 72.1022 64.2549 72.0184 64.6598C71.9349 65.0653 71.8164 65.3904 71.664 65.6319C71.5101 65.8758 71.3078 65.9959 71.055 65.9959C70.9415 65.9959 70.8449 65.9897 70.765 65.9772C70.6854 65.9633 70.612 65.9401 70.5452 65.9087L70.6554 65.2884C70.7956 65.3278 70.9213 65.3195 71.0303 65.2629C71.1393 65.2062 71.235 65.0336 71.314 64.7432C71.3936 64.4545 71.4584 64.0119 71.5101 63.4145C71.5585 62.8188 71.5927 62.0042 71.6138 60.9719H74.0808V65.957H73.3612V61.6192Z" fill="#E84B37"/>
<path d="M76.1764 62.8758C76.3092 62.8497 76.436 62.831 76.5558 62.8209C76.6761 62.8114 76.7887 62.8061 76.8962 62.8061C77.1758 62.8061 77.412 62.8437 77.6048 62.9197C77.7976 62.9974 77.9533 63.1003 78.0742 63.2347C78.1933 63.3682 78.2801 63.5243 78.3341 63.7085C78.3876 63.8909 78.4137 64.0858 78.4137 64.2914C78.4137 64.8959 78.2679 65.335 77.9741 65.6067C77.6811 65.8808 77.2215 66.0158 76.5968 66.0158C76.2037 66.0158 75.8243 65.9968 75.4589 65.957V60.9719H76.1767V62.8758H76.1764ZM76.1764 65.3086C76.3763 65.3474 76.5605 65.3676 76.7266 65.3676C77.3517 65.3676 77.6645 65.038 77.6645 64.3813C77.6645 64.0825 77.5908 63.8473 77.4455 63.6782C77.2985 63.5085 77.065 63.4243 76.7456 63.4243C76.66 63.4243 76.5659 63.4296 76.466 63.4397C76.3665 63.4483 76.2712 63.4679 76.1767 63.4937V65.3086H76.1764Z" fill="#E84B37"/>
<path d="M81.8676 63.7334H80.1401V65.9576H79.4214V60.971H80.1401V63.0858H81.8676V60.971H82.5875V65.9576H81.8676V63.7334Z" fill="#E84B37"/>
<path d="M84.6727 62.8758C84.8061 62.8497 84.9327 62.831 85.0521 62.8209C85.173 62.8114 85.2856 62.8061 85.3925 62.8061C85.6653 62.8061 85.894 62.8437 86.0806 62.9197C86.268 62.9974 86.4151 63.1003 86.5259 63.2347C86.6349 63.3682 86.7128 63.5242 86.7606 63.7085C86.8064 63.8909 86.8295 64.0858 86.8295 64.2914C86.8295 64.8959 86.6955 65.335 86.4252 65.6067C86.1549 65.8808 85.7083 66.0158 85.0818 66.0158C84.6962 66.0158 84.3204 65.9968 83.955 65.957V60.9719H84.6727V62.8758ZM84.6727 65.3086C84.8741 65.3474 85.0565 65.3676 85.2235 65.3676C85.5426 65.3676 85.7648 65.2825 85.8925 65.1134C86.0176 64.9443 86.0809 64.6998 86.0809 64.3812C86.0809 64.0816 86.0206 63.8473 85.8976 63.6782C85.7737 63.5085 85.5565 63.4243 85.244 63.4243C85.1564 63.4243 85.0631 63.4296 84.9633 63.4397C84.8637 63.4483 84.7666 63.4679 84.673 63.4937V65.3086H84.6727ZM87.429 60.9716H88.1486V65.9567H87.429V60.9716Z" fill="#E84B37"/>
<path d="M92.5101 65.6179C92.3521 65.763 92.1477 65.8763 91.9011 65.957C91.6542 66.0365 91.3946 66.0768 91.1236 66.0768C90.8108 66.0768 90.539 66.0137 90.3096 65.8914C90.0803 65.7683 89.8895 65.5918 89.7407 65.3619C89.5919 65.1335 89.4807 64.8603 89.4097 64.5408C89.3405 64.2216 89.3066 63.863 89.3066 63.4643C89.3066 62.6135 89.4623 61.9654 89.7749 61.5201C90.0889 61.0754 90.5303 60.8512 91.1037 60.8512C91.2888 60.8512 91.4745 60.8752 91.6578 60.9212C91.8414 60.968 92.006 61.0612 92.1521 61.1997C92.2977 61.3406 92.4153 61.5367 92.5066 61.7889C92.5966 62.0413 92.6405 62.3697 92.6405 62.7749C92.6405 62.8894 92.6352 63.0092 92.626 63.1389C92.6156 63.2688 92.6046 63.4041 92.5912 63.5423H90.0547C90.0547 63.8289 90.0779 64.089 90.1239 64.3207C90.1715 64.553 90.2439 64.7511 90.3441 64.9134C90.4433 65.0769 90.5716 65.2026 90.7294 65.291C90.8848 65.3818 91.0802 65.4278 91.312 65.4278C91.4929 65.4278 91.6705 65.3931 91.8464 65.3269C92.0229 65.2608 92.1587 65.1816 92.2514 65.0875L92.5101 65.6179ZM91.9522 62.9455C91.9656 62.448 91.8951 62.0813 91.7424 61.8497C91.5886 61.6159 91.3794 61.4996 91.1132 61.4996C90.8075 61.4996 90.5648 61.6159 90.3842 61.8497C90.2044 62.0813 90.099 62.4483 90.0648 62.9455H91.9522Z" fill="#E84B37"/>
<path d="M97.3532 64.1917L97.5638 65.159H97.6131L97.7619 64.1917L98.5213 60.9719H99.2503L98.0617 65.4477C97.969 65.8072 97.8742 66.1418 97.7819 66.4557C97.6892 66.768 97.5885 67.038 97.4788 67.2673C97.368 67.496 97.245 67.6761 97.1084 67.8054C96.9711 67.9353 96.8104 67.9997 96.6241 67.9997C96.4378 67.9997 96.2747 67.97 96.1348 67.9098L96.256 67.2317C96.3487 67.2649 96.4411 67.2711 96.5347 67.2516C96.6283 67.2317 96.7147 67.1753 96.7991 67.0828C96.8814 66.9899 96.9592 66.8505 97.0284 66.6681C97.0977 66.4859 97.1601 66.2486 97.2135 65.9567L95.5962 60.9716H96.4153L97.3532 64.1917Z" fill="#E84B37"/>
<path d="M102.775 65.7063C102.608 65.8339 102.419 65.9268 102.205 65.9858C101.992 66.0457 101.771 66.0772 101.537 66.0772C101.218 66.0772 100.948 66.0143 100.728 65.8912C100.508 65.7692 100.331 65.5918 100.193 65.3625C100.057 65.1341 99.9568 64.8585 99.893 64.5346C99.8312 64.213 99.7994 63.8568 99.7994 63.4646C99.7994 62.6135 99.95 61.9651 100.253 61.5195C100.556 61.0754 100.99 60.8524 101.556 60.8524C101.815 60.8524 102.039 60.8752 102.226 60.9221C102.411 60.9678 102.571 61.028 102.706 61.1006L102.506 61.7286C102.239 61.5762 101.949 61.4999 101.637 61.4999C101.276 61.4999 101.005 61.6574 100.823 61.9734C100.639 62.2896 100.55 62.7865 100.55 63.4646C100.55 63.7369 100.568 63.9929 100.608 64.232C100.648 64.4714 100.714 64.6785 100.807 64.855C100.901 65.03 101.02 65.1715 101.168 65.2729C101.313 65.3768 101.496 65.4281 101.716 65.4281C101.888 65.4281 102.051 65.3978 102.201 65.3388C102.35 65.2795 102.472 65.2095 102.566 65.1291L102.775 65.7063Z" fill="#E84B37"/>
<path d="M105.73 61.6192H104.642C104.622 62.1852 104.596 62.7316 104.563 63.2593C104.528 63.7871 104.47 64.2549 104.387 64.6598C104.305 65.0653 104.186 65.3904 104.032 65.6319C103.879 65.8758 103.678 65.9959 103.423 65.9959C103.31 65.9959 103.214 65.9897 103.134 65.9772C103.054 65.9633 102.981 65.9401 102.915 65.9087L103.025 65.2884C103.163 65.3278 103.289 65.3195 103.399 65.2629C103.508 65.2062 103.603 65.0336 103.683 64.7432C103.763 64.4545 103.828 64.0119 103.878 63.4145C103.928 62.8188 103.962 62.0042 103.983 60.9719H106.449V65.957H105.73V61.6192Z" fill="#E84B37"/>
<path d="M109.065 64.1917L109.273 65.159H109.324L109.474 64.1917L110.233 60.9719H110.962L109.774 65.4477C109.68 65.8072 109.587 66.1418 109.494 66.4557C109.401 66.768 109.3 67.038 109.19 67.2673C109.08 67.496 108.957 67.6761 108.82 67.8054C108.683 67.9353 108.522 67.9997 108.336 67.9997C108.149 67.9997 107.987 67.97 107.846 67.9098L107.966 67.2317C108.06 67.2649 108.153 67.2711 108.247 67.2516C108.34 67.2317 108.428 67.1753 108.511 67.0828C108.593 66.9899 108.671 66.8505 108.74 66.6681C108.81 66.4859 108.872 66.2486 108.925 65.9567L107.308 60.9716H108.125L109.065 64.1917Z" fill="#E84B37"/>
<path d="M114.156 61.6192H112.498V65.957H111.781V60.9719H114.156V61.6192Z" fill="#E84B37"/>
<path d="M117.422 63.0855L117.481 62.3282H117.441L117.093 63.165L115.404 65.957H114.936V60.9716H115.654V63.9336L115.595 64.6595H115.634L115.964 63.8434L117.672 60.9716H118.141V65.957H117.422V63.0855Z" fill="#E84B37"/>
<path d="M59.0138 52.1972H57.356V56.5341H56.6377V51.5487H59.0138V52.1972Z" fill="#E84B37"/>
<path d="M59.4538 54.0414C59.4538 53.1435 59.608 52.484 59.9181 52.0628C60.2262 51.641 60.668 51.4295 61.2405 51.4295C61.8528 51.4295 62.3037 51.6451 62.594 52.0776C62.8833 52.5107 63.0268 53.1637 63.0268 54.0414C63.0268 54.9453 62.8712 55.6059 62.5586 56.0251C62.2458 56.4436 61.8061 56.654 61.2405 56.654C60.6279 56.654 60.1781 56.4383 59.8884 56.0052C59.5976 55.5733 59.4538 54.918 59.4538 54.0414ZM60.2022 54.0414C60.2022 54.3345 60.2209 54.6 60.2574 54.8376C60.294 55.0785 60.3537 55.285 60.4374 55.4576C60.5186 55.6302 60.6276 55.7643 60.7604 55.8607C60.8932 55.9577 61.0539 56.0052 61.2402 56.0052C61.5857 56.0052 61.8456 55.8504 62.0185 55.5413C62.1917 55.2321 62.2785 54.732 62.2785 54.0414C62.2785 53.7552 62.2595 53.492 62.2226 53.2488C62.1864 53.0055 62.1267 52.7991 62.0444 52.6255C61.9594 52.4529 61.8522 52.3194 61.7191 52.2209C61.5854 52.1254 61.4264 52.0776 61.2402 52.0776C60.9006 52.0776 60.6424 52.2334 60.4657 52.5449C60.2901 52.8587 60.2022 53.3571 60.2022 54.0414Z" fill="#E84B37"/>
<path d="M66.942 56.2846C66.7748 56.4101 66.5858 56.5048 66.3711 56.5632C66.1589 56.6231 65.9364 56.6537 65.7023 56.6537C65.3838 56.6537 65.1138 56.5908 64.8936 56.4695C64.6735 56.3452 64.497 56.1701 64.3604 55.9399C64.2237 55.7106 64.1248 55.4359 64.0606 55.1126C63.9982 54.7907 63.967 54.4339 63.967 54.0414C63.967 53.1909 64.1177 52.5425 64.421 52.0981C64.7234 51.6525 65.1575 51.4295 65.7225 51.4295C65.9831 51.4295 66.2059 51.4535 66.3916 51.4983C66.579 51.5455 66.7382 51.6054 66.8713 51.6784L66.6726 52.3064C66.4058 52.1533 66.1164 52.0773 65.8027 52.0773C65.4441 52.0773 65.1723 52.2349 64.9896 52.5508C64.8054 52.8667 64.7151 53.3633 64.7151 54.0411C64.7151 54.314 64.7341 54.5689 64.7739 54.8088C64.814 55.0482 64.8806 55.2556 64.9745 55.4324C65.0686 55.608 65.1866 55.7477 65.3336 55.8501C65.4807 55.9533 65.6625 56.0052 65.8823 56.0052C66.0555 56.0052 66.2186 55.975 66.3675 55.9147C66.5163 55.8557 66.6387 55.7857 66.7314 55.7071L66.942 56.2846Z" fill="#E84B37"/>
<path d="M69.0573 54.7691L69.268 55.7361H69.317L69.4676 54.7691L70.2264 51.5493H70.9548L69.7674 56.0245C69.6738 56.3843 69.5805 56.7198 69.4869 57.0322C69.3933 57.3445 69.2929 57.6148 69.1827 57.845C69.0728 58.074 68.9501 58.2532 68.8131 58.3828C68.6762 58.5121 68.516 58.5768 68.3295 58.5768C68.1432 58.5768 67.9801 58.5465 67.8399 58.4869L67.9605 57.8079C68.0532 57.8429 68.1468 57.8491 68.2398 57.8287C68.3327 57.8079 68.4207 57.7533 68.5033 57.6605C68.5874 57.5667 68.6634 57.4285 68.7338 57.2449C68.803 57.0636 68.8642 56.8254 68.9189 56.5338L67.3013 51.549H68.1197L69.0573 54.7691Z" fill="#E84B37"/>
<path d="M75.2785 57.8014H74.7797L74.6591 56.5344H71.7028L71.5736 57.8014H71.0852V55.8868H71.554C71.5938 55.8133 71.6482 55.6789 71.7192 55.4813C71.7887 55.2855 71.8561 55.0138 71.9236 54.665C71.9904 54.3161 72.0484 53.8863 72.0983 53.374C72.1479 52.8611 72.1764 52.2529 72.1835 51.5499H74.6885V55.8868H75.2782V57.8014H75.2785ZM73.9708 55.8865V52.1969H72.8425C72.8276 52.4831 72.8104 52.7955 72.7875 53.1346C72.7637 53.4724 72.7287 53.8103 72.6823 54.1455C72.6357 54.4813 72.5792 54.8023 72.5127 55.1087C72.4456 55.414 72.3695 55.6718 72.2833 55.8862H73.9708V55.8865Z" fill="#E84B37"/>
<path d="M76.1764 51.8483C76.3695 51.7291 76.6051 51.6356 76.8805 51.5686C77.1577 51.5018 77.4476 51.4695 77.7533 51.4695C78.0341 51.4695 78.2581 51.511 78.4289 51.5947C78.5979 51.6775 78.7304 51.7899 78.827 51.9326C78.9232 52.077 78.9871 52.2387 79.0156 52.4214C79.0468 52.6033 79.0614 52.7958 79.0614 52.9952C79.0614 53.3944 79.054 53.7819 79.0355 54.1616C79.0189 54.5392 79.0106 54.899 79.0106 55.2387C79.0106 55.4908 79.0189 55.7249 79.0355 55.9402C79.054 56.1571 79.0855 56.3609 79.1318 56.5543H78.5685L78.3938 55.9657H78.3549C78.2554 56.1384 78.1098 56.2885 77.9182 56.4149C77.7269 56.5409 77.4696 56.6044 77.1449 56.6044C76.7881 56.6044 76.497 56.4792 76.2685 56.2301C76.0398 55.98 75.9263 55.6368 75.9263 55.198C75.9263 54.9118 75.9738 54.673 76.0692 54.4793C76.1663 54.2882 76.3003 54.1322 76.4765 54.0118C76.6512 53.8919 76.8594 53.808 77.0997 53.7569C77.341 53.7071 77.609 53.6825 77.9066 53.6825H78.1045C78.1713 53.6825 78.2411 53.686 78.3121 53.692C78.3332 53.4867 78.3433 53.3028 78.3433 53.1441C78.3433 52.765 78.286 52.5004 78.1743 52.3461C78.0629 52.1927 77.8582 52.1186 77.5617 52.1186C77.3769 52.1186 77.1749 52.1453 76.9569 52.2013C76.7394 52.2586 76.5585 52.331 76.4138 52.417L76.1764 51.8483ZM78.3231 54.2603C78.2575 54.2541 78.1918 54.2494 78.1262 54.2452C78.0614 54.2422 77.9946 54.2414 77.9283 54.2414C77.7712 54.2414 77.6173 54.2538 77.464 54.2802C77.3134 54.3072 77.1785 54.3529 77.0605 54.4205C76.9429 54.487 76.849 54.576 76.7795 54.6896C76.7112 54.8026 76.6764 54.9444 76.6764 55.1182C76.6764 55.3837 76.7403 55.589 76.8686 55.7358C76.9958 55.8821 77.1627 55.9557 77.3665 55.9557C77.6431 55.9557 77.8555 55.888 78.0082 55.756C78.1589 55.6228 78.2643 55.4775 78.3231 55.317V54.2603Z" fill="#E84B37"/>
<path d="M80.4197 51.5493H80.9301L81.0397 52.0871H81.0789C81.3249 51.6496 81.7108 51.4295 82.2366 51.4295C82.7622 51.4295 83.1561 51.6259 83.4202 52.018C83.6834 52.409 83.8142 53.0509 83.8142 53.9415C83.8142 54.3597 83.7702 54.7371 83.6852 55.0726C83.5979 55.4078 83.4737 55.6946 83.3145 55.9305C83.1552 56.1669 82.9612 56.3452 82.7307 56.4686C82.5022 56.5908 82.2458 56.6528 81.9672 56.6528C81.775 56.6528 81.6205 56.6412 81.5079 56.6184C81.3956 56.5955 81.2717 56.5469 81.1392 56.473V58.5279H80.4194V51.5493H80.4197ZM81.1395 55.7459C81.2316 55.826 81.3377 55.8889 81.4541 55.9352C81.57 55.9824 81.7251 56.0052 81.9176 56.0052C82.2705 56.0052 82.5498 55.826 82.7562 55.4677C82.9621 55.1087 83.0655 54.5964 83.0655 53.9323C83.0655 53.6537 83.0474 53.4004 83.0108 53.1743C82.9737 52.948 82.9167 52.7537 82.8371 52.5902C82.7562 52.4286 82.6552 52.3004 82.5322 52.2114C82.409 52.1215 82.2568 52.077 82.0774 52.077C81.5917 52.077 81.2782 52.3734 81.1398 52.9634V55.7459H81.1395Z" fill="#E84B37"/>
<path d="M87.7193 56.2846C87.552 56.4101 87.3625 56.5048 87.1486 56.5632C86.9365 56.6231 86.7146 56.6537 86.4807 56.6537C86.1605 56.6537 85.8913 56.5908 85.6712 56.4695C85.4522 56.3452 85.2734 56.1701 85.1368 55.9399C85.0007 55.7106 84.9015 55.4359 84.837 55.1126C84.7749 54.7907 84.7437 54.4339 84.7437 54.0414C84.7437 53.1909 84.894 52.5425 85.1974 52.0981C85.5007 51.6525 85.9344 51.4295 86.4998 51.4295C86.7597 51.4295 86.9831 51.4535 87.1685 51.4983C87.3557 51.5455 87.5158 51.6054 87.648 51.6784L87.4486 52.3064C87.1822 52.1533 86.8925 52.0773 86.5797 52.0773C86.2211 52.0773 85.949 52.2349 85.7672 52.5508C85.5845 52.8667 85.4921 53.3633 85.4921 54.0411C85.4921 54.314 85.5114 54.5689 85.5521 54.8088C85.5916 55.0482 85.6578 55.2556 85.7514 55.4324C85.845 55.608 85.9638 55.7477 86.1109 55.8501C86.2573 55.9533 86.4398 56.0052 86.6602 56.0052C86.8322 56.0052 86.9956 55.975 87.145 55.9147C87.2948 55.8557 87.4163 55.7857 87.5087 55.7071L87.7193 56.2846Z" fill="#E84B37"/>
<path d="M91.2121 52.1972H89.9849V56.5341H89.2656V52.1972H88.0369V51.5487H91.2121V52.1972Z" fill="#E84B37"/>
<path d="M92.0119 51.5597C92.1973 51.5458 92.4005 51.5288 92.6206 51.5093C92.8405 51.4894 93.1022 51.4793 93.4097 51.4793C93.9489 51.4793 94.3342 51.5802 94.5671 51.7828C94.8012 51.9863 94.9171 52.2939 94.9171 52.705C94.9171 52.9373 94.8624 53.1639 94.7516 53.3835C94.6426 53.6024 94.4575 53.7679 94.1976 53.8812V53.9219C94.5181 53.9949 94.7439 54.1292 94.8773 54.325C95.0095 54.5208 95.0775 54.7887 95.0775 55.1277C95.0775 55.6457 94.9233 56.0224 94.6173 56.2538C94.311 56.487 93.8556 56.6038 93.2493 56.6038C93.0226 56.6038 92.806 56.5955 92.601 56.5783C92.3937 56.562 92.1973 56.5439 92.0119 56.5243V51.5597ZM93.4694 53.673C93.5627 53.673 93.6527 53.651 93.7395 53.608C93.825 53.5656 93.904 53.5066 93.9733 53.433C94.0434 53.3594 94.098 53.2761 94.1378 53.1794C94.1777 53.0827 94.1976 52.9812 94.1976 52.8756C94.1976 52.6163 94.1364 52.4268 94.0131 52.3069C93.8901 52.1871 93.6788 52.1278 93.3791 52.1278C93.2184 52.1278 93.0936 52.1322 93 52.1385C92.9067 52.1447 92.817 52.1518 92.7297 52.1571V53.6733H93.4694V53.673ZM92.7297 55.915C92.8301 55.9296 92.9257 55.9388 93.0146 55.9462C93.1058 55.9521 93.2169 55.9548 93.3491 55.9548C93.6895 55.9548 93.937 55.8866 94.093 55.7459C94.2484 55.6056 94.3286 55.3802 94.3286 55.0684C94.3286 54.8296 94.2614 54.6309 94.1292 54.4754C93.994 54.3185 93.7516 54.2405 93.3984 54.2405H92.7297V55.915Z" fill="#E84B37"/>
<path d="M99.2194 56.1945C99.062 56.3404 98.8582 56.454 98.6116 56.5335C98.3656 56.6136 98.106 56.6546 97.8321 56.6546C97.5204 56.6546 97.2486 56.5911 97.0192 56.4698C96.7899 56.3458 96.5992 56.1704 96.4503 55.9405C96.2997 55.7115 96.1904 55.438 96.1215 55.1185C96.051 54.7991 96.0157 54.4407 96.0157 54.0408C96.0157 53.191 96.1714 52.5431 96.4851 52.0978C96.7979 51.6526 97.2403 51.4286 97.8136 51.4286C97.999 51.4286 98.1844 51.4538 98.3677 51.4989C98.5495 51.5458 98.715 51.6398 98.8612 51.7774C99.0085 51.9178 99.1256 52.113 99.2162 52.3663C99.3056 52.6178 99.3508 52.948 99.3508 53.3538C99.3508 53.4668 99.3454 53.587 99.3359 53.7172C99.3255 53.8459 99.3133 53.9806 99.3012 54.1203H96.7646C96.7646 54.406 96.7881 54.6668 96.8348 54.8975C96.8817 55.1307 96.9542 55.3289 97.0546 55.4917C97.1532 55.6546 97.2813 55.7804 97.4396 55.8699C97.595 55.9583 97.7902 56.0043 98.0219 56.0043C98.2019 56.0043 98.3805 55.972 98.5567 55.9052C98.7331 55.8391 98.8671 55.7587 98.9598 55.6659L99.2194 56.1945ZM98.6618 53.5229C98.674 53.0245 98.6051 52.6579 98.4524 52.4274C98.2982 52.1933 98.0882 52.0785 97.8229 52.0785C97.5157 52.0785 97.2738 52.1933 97.0947 52.4274C96.9144 52.6579 96.8089 53.0248 96.7741 53.5229H98.6618Z" fill="#E84B37"/>
<path d="M103.004 54.3111H101.278V56.5332H100.558V51.5493H101.278V53.6629H103.004V51.5493H103.723V56.5332H103.004V54.3111Z" fill="#E84B37"/>
<path d="M107.538 54.3111H105.81V56.5332H105.09V51.5493H105.81V53.6629H107.538V51.5493H108.256V56.5332H107.538V54.3111Z" fill="#E84B37"/>
<path d="M110.342 53.4529C110.475 53.4265 110.602 53.409 110.721 53.3977C110.842 53.3882 110.955 53.3829 111.061 53.3829C111.334 53.3829 111.564 53.4211 111.75 53.498C111.937 53.5742 112.086 53.6795 112.195 53.8118C112.304 53.945 112.382 54.1025 112.429 54.285C112.476 54.4689 112.498 54.6635 112.498 54.8691C112.498 55.4742 112.365 55.913 112.095 56.1847C111.826 56.4567 111.378 56.5932 110.751 56.5932C110.366 56.5932 109.989 56.5736 109.623 56.5335V51.5496H110.342V53.4529H110.342ZM110.342 55.8865C110.541 55.9254 110.725 55.9453 110.892 55.9453C111.212 55.9453 111.433 55.8599 111.562 55.6911C111.686 55.5217 111.751 55.2772 111.751 54.9586C111.751 54.659 111.688 54.4244 111.566 54.2565C111.443 54.0856 111.225 54.0017 110.912 54.0017C110.825 54.0017 110.732 54.007 110.632 54.0177C110.533 54.0254 110.436 54.0459 110.342 54.0717V55.8865H110.342ZM113.098 51.5493H113.817V56.5332H113.098V51.5493Z" fill="#E84B37"/>
<path d="M118.179 56.1945C118.022 56.3404 117.818 56.454 117.571 56.5335C117.325 56.6136 117.065 56.6546 116.791 56.6546C116.479 56.6546 116.208 56.5911 115.979 56.4698C115.75 56.3458 115.559 56.1704 115.41 55.9405C115.261 55.7115 115.15 55.438 115.079 55.1185C115.01 54.7991 114.975 54.4407 114.975 54.0408C114.975 53.191 115.131 52.5431 115.445 52.0978C115.758 51.6526 116.2 51.4286 116.773 51.4286C116.96 51.4286 117.143 51.4538 117.325 51.4989C117.511 51.5458 117.675 51.6398 117.821 51.7774C117.967 51.9178 118.085 52.113 118.176 52.3663C118.266 52.6178 118.31 52.948 118.31 53.3538C118.31 53.4668 118.305 53.587 118.295 53.7172C118.285 53.8459 118.273 53.9806 118.26 54.1203H115.723C115.723 54.406 115.747 54.6668 115.793 54.8975C115.841 55.1307 115.914 55.3289 116.014 55.4917C116.113 55.6546 116.241 55.7804 116.398 55.8699C116.554 55.9583 116.749 56.0043 116.981 56.0043C117.161 56.0043 117.34 55.972 117.516 55.9052C117.692 55.8391 117.827 55.7587 117.921 55.6659L118.179 56.1945ZM117.621 53.5229C117.635 53.0245 117.564 52.6579 117.412 52.4274C117.258 52.1933 117.049 52.0785 116.782 52.0785C116.477 52.0785 116.234 52.1933 116.054 52.4274C115.874 52.6579 115.769 53.0248 115.734 53.5229H117.621Z" fill="#E84B37"/>
</g>
<defs>
<clipPath id="clip0">
<rect width="162" height="68" fill="white"/>
</clipPath>
</defs>
</svg>
