<svg width="250" height="79" viewBox="0 0 368 79" fill="none" xmlns="http://www.w3.org/2000/svg">
<path fill-rule="evenodd" clip-rule="evenodd" d="M38.245 67.4977C54.2867 67.4977 67.2866 54.4899 67.2866 38.4416H9.20807C9.20807 54.4899 22.2095 67.4993 38.2466 67.4993" fill="#2B2B2B"/>
<path fill-rule="evenodd" clip-rule="evenodd" d="M9.20807 38.4413H67.2866C67.2866 22.3945 54.2852 9.38519 38.2466 9.38519C22.2204 9.38519 9.21274 22.3945 9.21274 38.4413H9.20807Z" fill="#ED4333"/>
<path fill-rule="evenodd" clip-rule="evenodd" d="M4.24774 38.4417C4.24774 53.12 13.5896 65.656 26.6346 70.4154L27.3581 68.4226C15.1175 63.9699 6.37471 52.2279 6.37471 38.4417C6.37471 22.0882 18.6775 8.61804 34.5263 6.77469L33.1929 4.80212C16.8353 7.25266 4.24774 21.4032 4.24774 38.4417ZM43.3018 4.80212L41.9684 6.77314C57.8156 8.6196 70.12 22.0897 70.12 38.4401C70.12 52.2279 61.3756 63.9699 49.1366 68.4226L49.8601 70.4154C62.9051 65.6544 72.2438 53.1184 72.2438 38.4417C72.2438 21.4032 59.6703 7.25266 43.3018 4.80212Z" fill="#ED4333"/>
<path fill-rule="evenodd" clip-rule="evenodd" d="M33.1913 4.80188L32.53 3.82415L33.1462 2.66583C15.6372 5.15373 2.12543 20.243 2.12543 38.443C2.12543 54.0383 12.0476 67.3543 25.908 72.4142L26.6392 70.4214C13.5849 65.6729 4.24928 53.1462 4.24928 38.443C4.24928 21.3718 16.8213 7.24307 33.1897 4.79876M43.35 2.66583L43.9724 3.8226L43.3189 4.80343C59.7029 7.24774 72.2594 21.3842 72.2594 38.4477C72.2594 53.1602 62.9393 65.6775 49.885 70.426L50.6163 72.4189C64.4641 67.359 74.391 54.0476 74.391 38.4477C74.391 20.2477 60.8855 5.16152 43.3811 2.6705" fill="white"/>
<path fill-rule="evenodd" clip-rule="evenodd" d="M33.1462 2.6627L34.3707 0.367859C15.0926 2.31863 0 18.6503 0 38.4414C0 54.9553 10.5073 69.0575 25.1829 74.4101L25.9064 72.4173C12.0336 67.373 2.12541 54.0679 2.12541 38.443C2.12541 20.215 15.6154 5.14593 33.1462 2.66582M42.1271 0.367859L43.3485 2.6627C60.8808 5.14437 74.3692 20.215 74.3692 38.443C74.3692 54.0663 64.4579 67.373 50.5882 72.4188L51.3118 74.4116C65.9874 69.056 76.4931 54.9662 76.4931 38.4477C76.4931 18.6597 61.4005 2.32797 42.1271 0.381871" fill="#2B2B2B"/>
<path fill-rule="evenodd" clip-rule="evenodd" d="M34.1311 6.82121L32.1161 3.84757L33.9506 0.411528L34.8064 0.318115L32.9517 3.80086L34.9277 6.72002L34.1311 6.82121ZM42.3682 6.82121L44.3832 3.84757L42.5549 0.411528L41.7038 0.318115L43.5554 3.80086L41.5794 6.72002L42.3682 6.82121Z" fill="#2B2B2B"/>
<path fill-rule="evenodd" clip-rule="evenodd" d="M62.4398 31.3391L58.3601 32.952C58.3601 32.952 62.4398 31.3484 61.5887 23.6263L57.285 26.9269C57.285 26.9269 61.5887 23.6263 58.9903 14.97L50.1588 23.9844C48.1049 25.8371 46.3249 28.3281 46.6735 31.4418C46.7513 33.5592 44.4998 40.3005 39.0136 38.4167L39.0183 37.467C40.1276 36.1125 39.4944 33.8083 38.2512 33.7772H38.2201C36.9753 33.8083 36.342 36.1125 37.4514 37.4826L37.4561 38.4478C31.9699 40.3161 29.7184 33.5748 29.7962 31.4636C30.1385 28.3608 28.3647 25.8589 26.3109 24.0186L17.4732 14.9887C14.8747 23.6512 19.1691 26.9456 19.1691 26.9456L14.8747 23.645C14.019 31.3733 18.0955 32.9863 18.0955 32.9863L14.019 31.3671C15.1393 38.4758 18.4845 38.7592 18.4845 38.7592L15.1393 38.479C17.7766 44.6131 20.8573 43.9031 20.8573 43.9031L17.7766 44.6037C21.4797 49.3834 23.3624 48.2468 23.3624 48.2468L21.4797 49.3834C25.7897 52.4722 26.8477 51.2781 26.8477 51.2781L25.7897 52.4769C30.2599 53.5044 30.8511 52.2745 30.8511 52.2745L30.2599 53.52C33.753 53.9404 34.4298 52.1188 34.4298 52.1188L30.1976 63.4841C32.0492 64.1488 33.1228 62.69 33.1228 62.69L32.7338 64.2438C35.1517 64.482 35.6154 63.1026 35.6154 63.1026L35.4194 64.4773C37.7066 64.5287 38.2201 63.3019 38.2201 63.3019C38.2201 63.3019 38.7335 64.5272 41.0207 64.4742L40.834 63.0948C40.834 63.0948 41.3008 64.4649 43.7172 64.2314L43.3282 62.6776C43.3282 62.6776 44.4065 64.1333 46.2565 63.4716L42.0243 52.111C42.0243 52.111 42.6934 53.917 46.1942 53.4967L45.603 52.2667C45.603 52.2667 46.1942 53.4967 50.6598 52.4691L49.6018 51.275C49.6018 51.275 50.6598 52.4691 54.9697 49.3818L53.0871 48.2453C53.0871 48.2453 54.9697 49.3818 58.6729 44.5913L55.5921 43.8907C55.5921 43.8907 58.6729 44.6006 61.3024 38.4727L57.9416 38.753C57.9416 38.753 61.29 38.4727 62.4118 31.3578" fill="white"/>
<path fill-rule="evenodd" clip-rule="evenodd" d="M58.9903 14.2444C58.896 14.2441 58.8025 14.2626 58.7154 14.299C58.6282 14.3354 58.5493 14.3888 58.4831 14.4561L49.6687 23.4705C46.9038 25.9615 45.6591 28.6549 45.9656 31.4884C45.992 32.4693 45.3681 35.0537 43.7826 36.704C42.9268 37.5914 41.931 38.0429 40.8419 38.0429C40.484 38.0429 40.095 37.9962 39.706 37.9028V37.6833C40.4529 36.5903 40.3751 35.2 39.9705 34.3204C39.6127 33.5357 38.9592 33.0593 38.2435 33.0391H38.2123C37.4499 33.0578 36.812 33.5373 36.4386 34.3219C36.034 35.2094 35.9562 36.595 36.7031 37.6848V37.8872C36.3141 37.9806 35.9407 38.0429 35.5672 38.0429C34.4781 38.0429 33.4885 37.5914 32.6343 36.704C31.0472 35.0693 30.4249 32.4848 30.4466 31.504C30.7578 28.6705 29.5069 25.9771 26.7435 23.5016L17.9431 14.4717C17.8567 14.3841 17.7489 14.3205 17.6305 14.2872C17.512 14.254 17.3869 14.2522 17.2675 14.282C17.1482 14.3119 17.0386 14.3724 16.9497 14.4575C16.8608 14.5426 16.7957 14.6495 16.7606 14.7675C15.5003 18.9555 15.7881 21.9603 16.4805 23.9998L15.2669 23.0813C15.1663 23.0058 15.0474 22.9584 14.9225 22.9439C14.7976 22.9294 14.6711 22.9484 14.5558 22.9987C14.4391 23.0475 14.3376 23.1266 14.2618 23.2279C14.186 23.3292 14.1387 23.449 14.1248 23.5748C13.7359 27.2023 14.3738 29.5844 15.2296 31.1101L14.2493 30.7209C14.1331 30.6774 14.0076 30.6646 13.885 30.6837C13.7624 30.7028 13.6467 30.7531 13.5491 30.8299C13.4522 30.9095 13.3781 31.0134 13.3344 31.131C13.2907 31.2486 13.2789 31.3757 13.3002 31.4993C13.8137 34.7688 14.8095 36.6993 15.7897 37.8514L15.1829 37.8047C15.0613 37.7952 14.9393 37.8174 14.8288 37.8689C14.7182 37.9205 14.6229 37.9998 14.552 38.0991C14.4811 38.1984 14.437 38.3144 14.424 38.4357C14.4111 38.5571 14.4297 38.6797 14.478 38.7918C15.6761 41.5755 16.9924 43.0545 18.1283 43.8361L17.6086 43.9544C17.4932 43.9811 17.3863 44.0364 17.2979 44.1152C17.2094 44.194 17.1421 44.2938 17.1023 44.4054C17.0625 44.5171 17.0514 44.6369 17.07 44.754C17.0886 44.8711 17.1363 44.9816 17.2087 45.0753C18.8425 47.1927 20.1961 48.2514 21.2386 48.7418L21.0986 48.8196C20.9973 48.8797 20.9128 48.9641 20.8525 49.0652C20.7922 49.1663 20.7582 49.2809 20.7536 49.3986C20.749 49.5162 20.7738 49.6331 20.8259 49.7387C20.878 49.8442 20.9557 49.9351 21.0519 50.0029C22.6856 51.1705 24.0642 51.8867 25.1751 52.1451C25.1172 52.2414 25.0829 52.35 25.0751 52.4621C25.0673 52.5742 25.0862 52.6865 25.1303 52.7899C25.1743 52.8932 25.2423 52.9846 25.3285 53.0566C25.4147 53.1286 25.5168 53.179 25.6263 53.2038C26.8555 53.4841 27.9214 53.6242 28.8005 53.6242C29.0743 53.6242 29.3233 53.6086 29.5473 53.5884C29.5591 53.7527 29.6277 53.9078 29.7412 54.0271C29.8548 54.1464 30.0062 54.2225 30.1697 54.2423C30.5431 54.289 30.9072 54.3045 31.248 54.3045C31.917 54.3045 32.4771 54.2236 32.9439 54.0866L29.5629 63.2161C29.5295 63.3043 29.514 63.3982 29.5173 63.4924C29.5207 63.5866 29.5428 63.6792 29.5823 63.7647C29.6219 63.8503 29.6781 63.9271 29.7477 63.9906C29.8173 64.0541 29.8989 64.1031 29.9876 64.1347C30.3844 64.2748 30.7812 64.3464 31.1702 64.3464C31.4969 64.3464 31.7925 64.2997 32.057 64.2219C32.0563 64.3992 32.1221 64.5703 32.2414 64.7015C32.3606 64.8327 32.5247 64.9143 32.7012 64.9303C32.9097 64.9458 33.1135 64.9614 33.308 64.9614C33.8153 64.969 34.3198 64.8846 34.7971 64.7123C34.847 64.8421 34.9343 64.9543 35.0478 65.0346C35.1613 65.1149 35.296 65.1599 35.435 65.1638L35.5906 65.1794C36.9287 65.1794 37.7533 64.7746 38.2512 64.3854C38.7445 64.7901 39.5738 65.1949 40.9119 65.1949H41.0722C41.2126 65.1932 41.3493 65.1492 41.4645 65.0687C41.5796 64.9881 41.6679 64.8748 41.7179 64.7434C42.1968 64.9153 42.7029 64.9986 43.2116 64.9894C43.4045 64.9894 43.6083 64.9785 43.8184 64.9583C43.994 64.9408 44.1568 64.8583 44.2748 64.727C44.3928 64.5957 44.4576 64.425 44.4563 64.2483C44.7208 64.3262 45.0165 64.3729 45.3432 64.3729C45.7322 64.3729 46.1321 64.3028 46.5257 64.1612C46.6148 64.1299 46.6966 64.0811 46.7666 64.0177C46.8365 63.9543 46.8931 63.8776 46.9329 63.792C46.9728 63.7064 46.9952 63.6138 46.9987 63.5194C47.0023 63.425 46.9869 63.3309 46.9536 63.2426L43.5305 54.0726C43.9973 54.2127 44.5575 54.2999 45.2265 54.2999C45.5688 54.2999 45.9345 54.2718 46.3094 54.2267C46.473 54.2072 46.6246 54.1312 46.7383 54.0118C46.8519 53.8925 46.9203 53.7372 46.9318 53.5728C47.159 53.6008 47.4064 53.6148 47.6787 53.6148C48.5593 53.6148 49.6236 53.4747 50.8528 53.1945C50.9623 53.1697 51.0644 53.1192 51.1506 53.0473C51.2369 52.9753 51.3048 52.8839 51.3488 52.7805C51.3929 52.6772 51.4118 52.5649 51.404 52.4528C51.3962 52.3407 51.3619 52.2321 51.304 52.1358C52.4134 51.8774 53.7935 51.155 55.4226 49.9935C55.5174 49.9248 55.5937 49.8336 55.6449 49.7283C55.696 49.6229 55.7204 49.5065 55.7157 49.3894C55.7111 49.2723 55.6777 49.1582 55.6184 49.0572C55.5591 48.9562 55.4758 48.8714 55.3759 48.8103L55.2405 48.7262C56.2892 48.228 57.6367 47.1693 59.2704 45.052C59.3416 44.9575 59.3882 44.8468 59.4058 44.7298C59.4235 44.6127 59.4117 44.4932 59.3715 44.3819C59.3314 44.2706 59.2641 44.1711 59.1758 44.0923C59.0875 44.0136 58.981 43.9582 58.8659 43.931L58.3477 43.8065C59.4836 43.028 60.803 41.549 61.998 38.7684C62.0468 38.6559 62.0655 38.5327 62.0523 38.4108C62.0391 38.2889 61.9945 38.1726 61.9228 38.0732C61.851 37.9737 61.7547 37.8947 61.6432 37.8438C61.5317 37.7929 61.409 37.7719 61.2869 37.7829L60.6817 37.8389C61.6463 36.7024 62.6421 34.7875 63.1556 31.5491C63.1805 31.4454 63.1816 31.3374 63.1588 31.2332C63.1361 31.129 63.09 31.0313 63.0242 30.9474C62.9583 30.8635 62.8743 30.7957 62.7785 30.7489C62.6827 30.7021 62.5776 30.6776 62.471 30.6773H62.4243C62.3385 30.6808 62.254 30.7004 62.1754 30.7349L61.1951 31.1163C62.0509 29.5906 62.6888 27.2086 62.2843 23.581C62.2713 23.4556 62.225 23.336 62.1502 23.2345C62.0753 23.1331 61.9746 23.0536 61.8587 23.0044C61.7427 22.9551 61.6156 22.9378 61.4907 22.9543C61.3658 22.9709 61.2476 23.0206 61.1484 23.0984L59.9395 24.0325C60.6241 21.993 60.9135 18.9882 59.6594 14.8002C59.6145 14.6555 59.5243 14.529 59.4022 14.4393C59.2801 14.3496 59.1325 14.3015 58.981 14.302M58.981 15.0088C61.5794 23.6557 57.285 26.9657 57.2741 26.9657L61.5841 23.6651C62.4399 31.3779 58.3742 32.997 58.3633 33.0064L62.4399 31.3903C61.3196 38.4944 57.9588 38.7777 57.9588 38.7777L61.3102 38.4975C59.1631 43.4795 56.7296 43.9466 55.8956 43.9466C55.6995 43.9466 55.5922 43.9264 55.5922 43.9264L58.6729 44.6332C56.1585 47.8808 54.4875 48.4008 53.6675 48.4008C53.2785 48.4008 53.084 48.2856 53.084 48.2856L54.9667 49.4222C52.5316 51.1596 51.1391 51.5395 50.3813 51.5395C49.8025 51.5395 49.6034 51.3153 49.6003 51.3122L50.6583 52.511C49.3466 52.8068 48.3711 52.9158 47.6398 52.9158C45.8971 52.9158 45.5984 52.3024 45.5968 52.293L46.1881 53.5385C45.8302 53.579 45.4988 53.6008 45.1923 53.6008C42.5627 53.6008 42.0182 52.1405 42.0182 52.1405L46.2503 63.5057C45.908 63.6303 45.5968 63.677 45.3074 63.677C44.0471 63.677 43.3314 62.7117 43.3314 62.7117L43.7204 64.2624C43.5444 64.2774 43.3679 64.2842 43.1913 64.2826C41.2309 64.2826 40.8419 63.1149 40.8419 63.1149L41.0441 64.4928H40.8885C38.7258 64.4928 38.2279 63.3204 38.2279 63.3204C38.2279 63.3204 37.7456 64.4928 35.5672 64.4928H35.4272L35.6295 63.1072C35.6295 63.1072 35.2405 64.2748 33.2909 64.2748C33.1197 64.2748 32.9455 64.2686 32.7541 64.2499L33.1431 62.6977C33.1431 62.6977 32.4274 63.6676 31.167 63.6676C30.8761 63.6676 30.5602 63.6131 30.2179 63.4964L34.4501 52.1311C34.4501 52.1311 33.9055 53.5853 31.276 53.5853C30.971 53.5853 30.638 53.5697 30.2802 53.523L30.8714 52.2899C30.8714 52.2946 30.5758 52.9127 28.8238 52.9127C28.0925 52.9127 27.1185 52.8037 25.8053 52.5001L26.8633 51.3106C26.8586 51.3106 26.661 51.5348 26.0698 51.5348C25.3183 51.5348 23.9226 51.1612 21.4907 49.4175L23.3733 48.281C23.3733 48.281 23.1835 48.4055 22.7976 48.4055C21.9823 48.4055 20.3081 47.8871 17.7969 44.6378L20.8776 43.9217C20.8776 43.9217 20.7687 43.9482 20.582 43.9482C19.7418 43.9482 17.3145 43.4811 15.1673 38.4991L18.5282 38.7793C18.5282 38.7793 15.1829 38.4991 14.0626 31.3841L18.1392 33.0033C18.1236 33.0033 14.0626 31.3841 14.9028 23.6698L19.2034 26.9703C19.1988 26.9548 14.9044 23.6542 17.5028 14.9979L26.3312 24.0278C28.385 25.865 30.1681 28.3715 29.8165 31.4697C29.7511 33.3224 31.4813 38.7715 35.6357 38.7715C36.2114 38.7715 36.8182 38.6625 37.4717 38.4446V37.484C36.367 36.1201 36.9987 33.8128 38.2435 33.7817H38.2746C39.5193 33.8128 40.1417 36.1264 39.037 37.4871V38.4415C39.6905 38.6672 40.3035 38.7684 40.873 38.7684C45.0273 38.7684 46.7638 33.3193 46.6922 31.4666C46.3437 28.3606 48.1237 25.8618 50.1775 24.0185L59.0152 14.9886" fill="#2B2B2B"/>
<path fill-rule="evenodd" clip-rule="evenodd" d="M43.7219 64.5549C43.6432 64.5549 43.5668 64.5285 43.5047 64.48C43.4427 64.4314 43.3987 64.3636 43.3796 64.2872L41.4347 56.5417C41.412 56.4502 41.4265 56.3535 41.4751 56.2727C41.5237 56.192 41.6023 56.1339 41.6937 56.1112C41.7851 56.0885 41.8818 56.103 41.9625 56.1516C42.0432 56.2003 42.1013 56.2789 42.124 56.3704L44.0689 64.1143C44.0819 64.1668 44.0828 64.2214 44.0715 64.2742C44.0602 64.327 44.037 64.3766 44.0037 64.4191C43.9704 64.4616 43.9279 64.4959 43.8793 64.5194C43.8307 64.543 43.7759 64.5551 43.7219 64.5549ZM41.0364 64.7885C40.9516 64.7883 40.8696 64.7577 40.8054 64.7023C40.7412 64.6469 40.6989 64.5703 40.6863 64.4864L39.706 57.6938C39.6954 57.646 39.6947 57.5966 39.704 57.5486C39.7133 57.5006 39.7325 57.4551 39.7602 57.4148C39.788 57.3746 39.8237 57.3405 39.8652 57.3147C39.9068 57.2889 39.9532 57.272 40.0015 57.265C40.0499 57.258 40.0992 57.2611 40.1463 57.2741C40.1934 57.287 40.2374 57.3096 40.2754 57.3404C40.3133 57.3711 40.3446 57.4094 40.3671 57.4528C40.3896 57.4962 40.4029 57.5438 40.4062 57.5926L41.3709 64.3852C41.3781 64.4361 41.3742 64.488 41.3594 64.5372C41.3447 64.5864 41.3194 64.6318 41.2854 64.6703C41.2513 64.7088 41.2094 64.7394 41.1623 64.7601C41.1153 64.7808 41.0644 64.791 41.013 64.79L41.0364 64.7885ZM52.9813 30.5651C52.9087 30.562 52.8388 30.5367 52.781 30.4925C52.7232 30.4483 52.6804 30.3875 52.6583 30.3182C52.6363 30.2489 52.636 30.1745 52.6576 30.105C52.6792 30.0356 52.7216 29.9744 52.779 29.9299L61.3834 23.3318C61.4202 23.3032 61.4622 23.2821 61.5071 23.2697C61.5521 23.2574 61.599 23.254 61.6452 23.2598C61.6915 23.2655 61.7361 23.2804 61.7766 23.3034C61.8171 23.3265 61.8527 23.3573 61.8813 23.3941C61.9099 23.4309 61.931 23.473 61.9433 23.5179C61.9557 23.5629 61.9591 23.6098 61.9533 23.6561C61.9475 23.7023 61.9327 23.747 61.9096 23.7875C61.8866 23.8281 61.8558 23.8637 61.819 23.8923L53.2147 30.4935C53.152 30.5408 53.0754 30.566 52.9969 30.5651H52.9813ZM53.1058 35.3867C53.0237 35.3854 52.9447 35.3556 52.8821 35.3024C52.8196 35.2493 52.7774 35.1761 52.7627 35.0953C52.748 35.0145 52.7618 34.9312 52.8016 34.8594C52.8415 34.7876 52.905 34.7319 52.9813 34.7017L62.3325 31.0119C62.4196 30.9768 62.517 30.9778 62.6034 31.0145C62.6898 31.0513 62.758 31.1209 62.7931 31.2081C62.8281 31.2952 62.8272 31.3927 62.7904 31.4791C62.7537 31.5655 62.6841 31.6338 62.597 31.6689L53.2458 35.3634C53.2061 35.3787 53.1639 35.3866 53.1213 35.3867H53.1058ZM52.1878 39.5748C52.1414 39.5768 52.0951 39.5697 52.0514 39.5538C52.0078 39.5379 51.9677 39.5136 51.9335 39.4823C51.8992 39.4509 51.8715 39.4131 51.8519 39.371C51.8322 39.3289 51.8211 39.2833 51.819 39.2369C51.817 39.1905 51.8241 39.1441 51.8399 39.1005C51.8558 39.0568 51.8801 39.0167 51.9115 38.9825C51.9428 38.9482 51.9806 38.9204 52.0227 38.9008C52.0647 38.8811 52.1103 38.87 52.1567 38.8679L61.3056 38.1051C61.3526 38.101 61.3999 38.1062 61.4449 38.1204C61.4899 38.1346 61.5316 38.1576 61.5677 38.1879C61.6039 38.2183 61.6337 38.2555 61.6554 38.2973C61.6772 38.3392 61.6905 38.385 61.6946 38.432C61.6987 38.479 61.6934 38.5264 61.6792 38.5714C61.665 38.6164 61.6421 38.6582 61.6118 38.6943C61.5814 38.7305 61.5443 38.7603 61.5024 38.7821C61.4605 38.8038 61.4148 38.8171 61.3678 38.8212L52.2345 39.5997H52.2033L52.1878 39.5748ZM58.6916 44.9304C58.6654 44.9304 58.6393 44.9272 58.6138 44.9211L50.5074 43.0528C50.4145 43.0322 50.3337 42.9755 50.2826 42.8952C50.2315 42.8149 50.2144 42.7176 50.2351 42.6247C50.2557 42.5318 50.3124 42.4509 50.3926 42.3998C50.4729 42.3487 50.5701 42.3316 50.663 42.3522L58.7694 44.2049C58.8571 44.2213 58.9353 44.2702 58.9884 44.3419C59.0415 44.4136 59.0656 44.5027 59.0557 44.5914C59.0459 44.6801 59.0029 44.7617 58.9353 44.82C58.8678 44.8783 58.7807 44.9088 58.6916 44.9055V44.9304ZM54.9885 49.7194C54.9284 49.7188 54.8694 49.7027 54.8173 49.6727L48.4068 45.8116C48.3264 45.7621 48.2689 45.6826 48.247 45.5906C48.2251 45.4986 48.2406 45.4017 48.2901 45.3212C48.3397 45.2407 48.4191 45.1832 48.511 45.1613C48.603 45.1394 48.6998 45.1549 48.7803 45.2044L55.1907 49.0811C55.2541 49.1215 55.303 49.1809 55.3305 49.2509C55.3579 49.3209 55.3625 49.3978 55.3434 49.4705C55.3244 49.5432 55.2828 49.608 55.2246 49.6555C55.1664 49.7031 55.0946 49.7309 55.0196 49.735L54.9885 49.7194ZM50.6785 52.8176C50.6293 52.8188 50.5803 52.8097 50.5348 52.791C50.4893 52.7722 50.4481 52.7442 50.414 52.7086L46.1196 47.8511C46.0862 47.8169 46.0601 47.7761 46.0429 47.7314C46.0256 47.6867 46.0177 47.639 46.0195 47.5911C46.0213 47.5433 46.0328 47.4963 46.0533 47.453C46.0738 47.4097 46.1029 47.371 46.1387 47.3394C46.1746 47.3077 46.2166 47.2836 46.2621 47.2686C46.3075 47.2537 46.3556 47.2481 46.4033 47.2523C46.451 47.2565 46.4973 47.2703 46.5395 47.293C46.5817 47.3156 46.6188 47.3466 46.6486 47.3841L50.9586 52.2416C51.0042 52.2926 51.0342 52.3559 51.0447 52.4236C51.0552 52.4913 51.046 52.5606 51.018 52.6232C50.99 52.6857 50.9445 52.7388 50.8871 52.7761C50.8296 52.8134 50.7626 52.8332 50.6941 52.8332L50.6785 52.8176ZM46.213 53.8451C46.1474 53.8436 46.0836 53.8239 46.0287 53.7881C45.9737 53.7524 45.9298 53.7021 45.9018 53.6428L43.7701 49.2056C43.7448 49.1236 43.7501 49.0351 43.785 48.9566C43.8199 48.8781 43.8821 48.815 43.9599 48.7788C44.0378 48.7427 44.1262 48.7361 44.2086 48.7602C44.291 48.7843 44.3619 48.8374 44.4081 48.9098L46.5397 53.3469C46.5666 53.4006 46.5794 53.4602 46.5769 53.5202C46.5745 53.5801 46.5569 53.6385 46.5259 53.6898C46.4948 53.7411 46.4512 53.7837 46.3992 53.8136C46.3472 53.8435 46.2885 53.8597 46.2285 53.8607L46.213 53.8451ZM32.7541 64.5721C32.7009 64.5716 32.6485 64.5592 32.6007 64.5357C32.553 64.5122 32.5111 64.4783 32.4782 64.4364C32.4454 64.3946 32.4223 64.3458 32.4108 64.2939C32.3993 64.2419 32.3997 64.188 32.4118 64.1361L34.3567 56.3984C34.3867 56.3159 34.4462 56.2475 34.5236 56.2063C34.6011 56.1651 34.691 56.1541 34.7761 56.1754C34.8612 56.1967 34.9354 56.2488 34.9844 56.3216C35.0334 56.3944 35.0537 56.4828 35.0413 56.5697L33.0964 64.3074C33.0767 64.3832 33.0324 64.4504 32.9705 64.4983C32.9085 64.5462 32.8324 64.5722 32.7541 64.5721ZM35.4459 64.8056H35.3992C35.3064 64.791 35.2232 64.7402 35.1677 64.6644C35.1123 64.5885 35.0892 64.4937 35.1036 64.4008L36.0838 57.6128C36.091 57.5668 36.1071 57.5227 36.1313 57.4829C36.1555 57.4431 36.1873 57.4085 36.2249 57.3811C36.2624 57.3536 36.305 57.3338 36.3502 57.3228C36.3954 57.3118 36.4424 57.3098 36.4883 57.317C36.5343 57.3242 36.5784 57.3403 36.6182 57.3645C36.6579 57.3887 36.6925 57.4205 36.7199 57.4581C36.7474 57.4957 36.7672 57.5383 36.7782 57.5836C36.7892 57.6288 36.7911 57.6758 36.784 57.7218L35.7866 64.4927C35.774 64.5763 35.732 64.6527 35.6681 64.7081C35.6042 64.7634 35.5226 64.7942 35.4381 64.7947L35.4459 64.8056ZM23.4947 30.5838C23.4154 30.5829 23.3387 30.5555 23.2769 30.5059L14.6725 23.9047C14.5982 23.8473 14.5498 23.7628 14.5378 23.6696C14.5259 23.5765 14.5514 23.4824 14.6087 23.4081C14.6661 23.3338 14.7506 23.2853 14.8437 23.2733C14.9368 23.2613 15.0308 23.2869 15.1051 23.3443L23.7125 29.9454C23.7722 29.9905 23.8161 30.0532 23.838 30.1247C23.86 30.1962 23.8588 30.2728 23.8346 30.3435C23.8105 30.4143 23.7646 30.4756 23.7036 30.5188C23.6425 30.5619 23.5694 30.5846 23.4947 30.5838ZM23.3827 35.3992C23.3384 35.3991 23.2946 35.3906 23.2535 35.3743L13.9054 31.6736C13.8621 31.6565 13.8226 31.6311 13.7891 31.5987C13.7556 31.5663 13.7288 31.5277 13.7103 31.485C13.6917 31.4423 13.6817 31.3963 13.6809 31.3497C13.6801 31.3032 13.6884 31.2569 13.7055 31.2135C13.7226 31.1702 13.748 31.1306 13.7803 31.0971C13.8127 31.0636 13.8513 31.0368 13.894 31.0182C13.9367 30.9996 13.9826 30.9897 14.0292 30.9888C14.0757 30.988 14.122 30.9964 14.1653 31.0135L23.5087 34.7064C23.5863 34.737 23.6506 34.7941 23.6904 34.8675C23.7302 34.9409 23.7428 35.0259 23.7261 35.1077C23.7093 35.1895 23.6643 35.2628 23.599 35.3147C23.5336 35.3666 23.4521 35.3937 23.3687 35.3914L23.3827 35.3992ZM24.3053 39.5872H24.2742L15.1409 38.8088C15.0493 38.7982 14.9655 38.7522 14.9074 38.6806C14.8492 38.6091 14.8214 38.5176 14.8297 38.4258C14.8387 38.3315 14.8848 38.2447 14.9577 38.1843C15.0306 38.1239 15.1244 38.0948 15.2187 38.1035L24.3676 38.8742C24.4615 38.8762 24.5507 38.9155 24.6156 38.9834C24.6805 39.0513 24.7158 39.1422 24.7138 39.2361C24.7117 39.3301 24.6724 39.4193 24.6046 39.4843C24.5368 39.5493 24.4459 39.5846 24.352 39.5825L24.3053 39.5872ZM17.8015 44.9429C17.7124 44.9462 17.6253 44.9156 17.5578 44.8574C17.4903 44.7991 17.4473 44.7174 17.4374 44.6287C17.4276 44.5401 17.4516 44.4509 17.5047 44.3793C17.5578 44.3076 17.6361 44.2586 17.7237 44.2423L25.8302 42.3849C25.9216 42.3622 26.0182 42.3768 26.0989 42.4254C26.1796 42.474 26.2377 42.5527 26.2604 42.6442C26.2831 42.7356 26.2685 42.8323 26.22 42.9131C26.1714 42.9938 26.0927 43.0519 26.0013 43.0746L17.8949 44.9273C17.8695 44.934 17.8433 44.9376 17.8171 44.9382L17.8015 44.9429ZM21.5047 49.7319C21.4296 49.7278 21.3579 49.6999 21.2997 49.6524C21.2415 49.6049 21.1999 49.5401 21.1808 49.4674C21.1618 49.3946 21.1663 49.3178 21.1938 49.2478C21.2212 49.1778 21.2701 49.1183 21.3335 49.078L27.744 45.2013C27.7838 45.1768 27.8281 45.1604 27.8743 45.153C27.9205 45.1455 27.9677 45.1473 28.0132 45.1581C28.0587 45.169 28.1016 45.1887 28.1395 45.2161C28.1774 45.2436 28.2096 45.2782 28.2341 45.3181C28.2586 45.358 28.275 45.4023 28.2824 45.4485C28.2899 45.4947 28.2881 45.542 28.2773 45.5875C28.2664 45.633 28.2467 45.676 28.2193 45.7139C28.1919 45.7518 28.1572 45.784 28.1174 45.8085L21.7069 49.6696C21.6548 49.6996 21.5959 49.7157 21.5358 49.7163L21.5047 49.7319ZM25.8146 52.8145C25.7461 52.8145 25.6791 52.7947 25.6216 52.7574C25.5641 52.7202 25.5187 52.667 25.4907 52.6045C25.4627 52.5419 25.4534 52.4726 25.464 52.4049C25.4745 52.3372 25.5044 52.274 25.5501 52.2229L29.86 47.3654C29.8888 47.3248 29.9258 47.2907 29.9686 47.2653C30.0115 47.2399 30.0591 47.2239 30.1085 47.2181C30.158 47.2124 30.2081 47.2171 30.2555 47.232C30.303 47.2469 30.3468 47.2716 30.3841 47.3046C30.4215 47.3375 30.4514 47.3779 30.4721 47.4232C30.4928 47.4685 30.5037 47.5176 30.5042 47.5674C30.5046 47.6172 30.4946 47.6665 30.4748 47.7122C30.455 47.7579 30.4258 47.7988 30.3891 47.8325L26.0947 52.6899C26.062 52.7283 26.0214 52.7593 25.9758 52.7807C25.9302 52.8022 25.8806 52.8137 25.8302 52.8145H25.8146ZM30.2957 53.842C30.2358 53.841 30.177 53.8248 30.125 53.7949C30.073 53.765 30.0295 53.7224 29.9984 53.6711C29.9673 53.6198 29.9497 53.5614 29.9473 53.5015C29.9449 53.4415 29.9577 53.3819 29.9845 53.3283L32.1006 48.8756C32.1169 48.8291 32.1427 48.7865 32.1765 48.7506C32.2102 48.7147 32.2511 48.6862 32.2964 48.667C32.3418 48.6478 32.3907 48.6384 32.4399 48.6392C32.4892 48.64 32.5377 48.6512 32.5824 48.6719C32.6271 48.6926 32.6669 48.7225 32.6994 48.7595C32.7319 48.7966 32.7563 48.84 32.771 48.8871C32.7857 48.9341 32.7904 48.9837 32.7848 49.0327C32.7792 49.0816 32.7635 49.1289 32.7385 49.1714L30.6225 53.6085C30.5945 53.6678 30.5505 53.7181 30.4956 53.7539C30.4406 53.7896 30.3768 53.8094 30.3113 53.8109L30.2957 53.842ZM38.2621 63.6193C38.215 63.6197 38.1683 63.6107 38.1247 63.5928C38.0811 63.575 38.0415 63.5486 38.0081 63.5153C37.9748 63.482 37.9485 63.4423 37.9306 63.3987C37.9128 63.3551 37.9038 63.3083 37.9043 63.2612V58.8396C37.9043 58.7447 37.942 58.6536 38.0091 58.5864C38.0762 58.5193 38.1672 58.4815 38.2621 58.4815C38.357 58.4815 38.4481 58.5193 38.5152 58.5864C38.5823 58.6536 38.62 58.7447 38.62 58.8396V63.2612C38.6169 63.351 38.5798 63.4364 38.5163 63.4999C38.4528 63.5635 38.3675 63.6006 38.2777 63.6037L38.2621 63.6193Z" fill="#2B2B2B"/>
<path fill-rule="evenodd" clip-rule="evenodd" d="M40.4793 48.5441V51.6828L38.0956 50.101L35.8348 51.6828V48.5441H32.6747L34.3038 46.2586L32.6747 43.9233H35.8332V40.7846L38.0956 42.3415L40.4793 40.7846V43.9233H43.6145L42.0586 46.2586L43.5056 48.5441H40.4793Z" fill="#ED4333"/>
<path fill-rule="evenodd" clip-rule="evenodd" d="M46.6782 20.5701V23.7072L45.1347 22.127L43.5912 23.7072V20.5701H40.4544L42.0104 19.0132L40.4544 17.4564H43.5912V14.3301L45.1705 15.9228L46.6782 14.3301V17.4564H49.815L48.2341 19.0132L49.815 20.5701H46.6782ZM32.6747 20.5701V23.7072L31.1313 22.127L29.5878 23.7072V20.5701H26.451L28.0069 19.0132L26.451 17.4564H29.5878V14.3301L31.167 15.9228L32.6747 14.3301V17.4564H35.8115L34.2307 19.0132L35.8115 20.5701H32.6747Z" fill="white"/>
<path fill-rule="evenodd" clip-rule="evenodd" d="M54.6446 69.0139C52.0623 70.439 49.3045 71.5194 46.4417 72.2273L46.9551 74.2871C49.9938 73.5358 52.921 72.3895 55.6621 70.8775L54.6446 69.0248V69.0139Z" fill="#ED4333"/>
<path fill-rule="evenodd" clip-rule="evenodd" d="M55.6684 70.876C52.9256 72.3905 49.9962 73.5389 46.9551 74.2918L47.4655 76.3516C50.6845 75.5517 53.785 74.3332 56.6875 72.7271L55.6684 70.876Z" fill="white"/>
<path fill-rule="evenodd" clip-rule="evenodd" d="M56.6938 72.7382C53.789 74.3416 50.6871 75.558 47.467 76.3564L47.9774 78.4146C51.3751 77.5696 54.6475 76.283 57.7113 74.5877L56.7 72.7382H56.6938Z" fill="#2B2B2B"/>
<path fill-rule="evenodd" clip-rule="evenodd" d="M47.6335 78.5L46.0978 72.313L46.7855 72.1417L48.3103 78.3288L47.6335 78.5Z" fill="#2C2A29"/>
<path fill-rule="evenodd" clip-rule="evenodd" d="M21.8516 69.0139C24.4329 70.4388 27.1896 71.5191 30.0514 72.2273L29.541 74.2871C26.5019 73.5358 23.5741 72.3895 20.8325 70.8775L21.8438 69.0248L21.8516 69.0139Z" fill="#ED4333"/>
<path fill-rule="evenodd" clip-rule="evenodd" d="M20.8262 70.876C23.5691 72.3905 26.4984 73.5389 29.5395 74.2918L29.0291 76.3516C25.8106 75.5516 22.7107 74.3331 19.8087 72.7271L20.8356 70.8745L20.8262 70.876Z" fill="white"/>
<path fill-rule="evenodd" clip-rule="evenodd" d="M19.8009 72.7382C22.7057 74.3415 25.8076 75.5579 29.0276 76.3564L28.5173 78.4146C25.1196 77.5696 21.8471 76.283 18.7833 74.5877L19.8009 72.7382Z" fill="#2B2B2B"/>
<path fill-rule="evenodd" clip-rule="evenodd" d="M28.8627 78.5001L28.1734 78.3288L29.7091 72.1433L30.3968 72.3146L28.8627 78.5001Z" fill="#2C2A29"/>
<path fill-rule="evenodd" clip-rule="evenodd" d="M49.8601 71.192L49.1366 69.1992C45.6464 70.4675 41.9613 71.1146 38.2481 71.111C34.4205 71.111 30.7563 70.4415 27.3565 69.2116L26.6346 71.2044C30.2599 72.5278 34.17 73.2595 38.2481 73.2595C42.3247 73.2595 46.2347 72.5433 49.8601 71.22" fill="white"/>
<path fill-rule="evenodd" clip-rule="evenodd" d="M50.5836 73.1896L49.8632 71.1968C46.1396 72.5498 42.2081 73.24 38.2466 73.2363C34.17 73.2363 30.2646 72.5155 26.6393 71.1968L25.9235 73.1896C29.8775 74.6311 34.0538 75.3668 38.2621 75.363C42.6032 75.363 46.7575 74.5955 50.6007 73.1896" fill="#2B2B2B"/>
<path fill-rule="evenodd" clip-rule="evenodd" d="M49.1335 69.1947L48.4115 67.2019C45.1533 68.3859 41.713 68.9897 38.2466 68.9861C34.6835 68.9861 31.2604 68.354 28.0863 67.2003L27.3705 69.1931C30.8609 70.4649 34.5475 71.1131 38.2621 71.1081C42.0897 71.1081 45.7617 70.4231 49.1537 69.1931" fill="#ED4333"/>
<path fill-rule="evenodd" clip-rule="evenodd" d="M50.5634 73.227L48.3897 67.2361L49.0557 66.9932L51.2293 72.9872L50.5634 73.227ZM25.9064 73.1803L28.08 67.1863L27.4141 66.9465L25.2358 72.9405L25.9064 73.1803Z" fill="#2C2A29"/>
<path d="M109.04 25.3848H102.032V40.4088H100.04V23.6088H109.04V25.3848ZM107.145 34.4088C107.145 32.3768 107.593 30.8248 108.489 29.7528C109.401 28.6648 110.705 28.1208 112.401 28.1208C113.297 28.1208 114.073 28.2728 114.729 28.5768C115.401 28.8648 115.953 29.2888 116.385 29.8488C116.817 30.3928 117.137 31.0568 117.345 31.8408C117.553 32.6088 117.657 33.4648 117.657 34.4088C117.657 36.4408 117.201 38.0008 116.289 39.0888C115.393 40.1608 114.097 40.6968 112.401 40.6968C111.505 40.6968 110.721 40.5528 110.049 40.2648C109.393 39.9608 108.849 39.5368 108.417 38.9928C107.985 38.4328 107.665 37.7688 107.457 37.0008C107.249 36.2168 107.145 35.3528 107.145 34.4088ZM109.137 34.4088C109.137 35.0168 109.193 35.6008 109.305 36.1608C109.433 36.7208 109.625 37.2088 109.881 37.6248C110.137 38.0408 110.473 38.3768 110.889 38.6328C111.305 38.8888 111.809 39.0168 112.401 39.0168C114.577 39.0328 115.665 37.4968 115.665 34.4088C115.665 33.7848 115.601 33.1928 115.473 32.6328C115.361 32.0728 115.177 31.5848 114.921 31.1688C114.665 30.7528 114.329 30.4248 113.913 30.1848C113.497 29.9288 112.993 29.8008 112.401 29.8008C110.225 29.7848 109.137 31.3208 109.137 34.4088ZM128.868 39.6168C128.388 39.9688 127.82 40.2328 127.164 40.4088C126.508 40.6008 125.82 40.6968 125.1 40.6968C124.172 40.6968 123.388 40.5528 122.748 40.2648C122.108 39.9608 121.58 39.5368 121.164 38.9928C120.764 38.4328 120.468 37.7688 120.276 37.0008C120.1 36.2168 120.012 35.3528 120.012 34.4088C120.012 32.3768 120.46 30.8248 121.356 29.7528C122.252 28.6648 123.54 28.1208 125.22 28.1208C125.988 28.1208 126.636 28.1848 127.164 28.3128C127.708 28.4248 128.196 28.5928 128.628 28.8168L128.076 30.4728C127.708 30.2648 127.3 30.1048 126.852 29.9928C126.404 29.8648 125.924 29.8008 125.412 29.8008C123.14 29.8008 122.004 31.3368 122.004 34.4088C122.004 35.0168 122.06 35.6008 122.172 36.1608C122.3 36.7048 122.5 37.1928 122.772 37.6248C123.06 38.0408 123.428 38.3768 123.876 38.6328C124.34 38.8888 124.908 39.0168 125.58 39.0168C126.156 39.0168 126.668 38.9288 127.116 38.7528C127.58 38.5768 127.956 38.3768 128.244 38.1528L128.868 39.6168ZM134.712 36.1848L135.384 38.4888H135.504L136.032 36.1608L138.36 28.4088H140.304L136.752 39.1848C136.48 39.9688 136.208 40.7288 135.936 41.4648C135.68 42.2008 135.392 42.8568 135.072 43.4328C134.752 44.0088 134.392 44.4648 133.992 44.8008C133.592 45.1528 133.128 45.3288 132.6 45.3288C132.024 45.3288 131.552 45.2488 131.184 45.0888L131.52 43.4328C131.728 43.5128 131.928 43.5528 132.12 43.5528C132.568 43.5528 133 43.3128 133.416 42.8328C133.832 42.3688 134.176 41.5608 134.448 40.4088L129.624 28.4088H131.832L134.712 36.1848ZM152.644 43.4568H151.348L150.988 40.4088H141.964L141.604 43.4568H140.308V38.7288H141.724C141.852 38.5528 142.02 38.2408 142.228 37.7928C142.436 37.3288 142.636 36.6888 142.828 35.8728C143.036 35.0408 143.212 34.0168 143.355 32.8008C143.516 31.5688 143.612 30.1048 143.644 28.4088H150.892V38.7288H152.644V43.4568ZM148.972 38.7288V30.0888H145.372C145.34 30.7608 145.284 31.4968 145.204 32.2968C145.124 33.0808 145.012 33.8728 144.868 34.6728C144.74 35.4568 144.572 36.2008 144.364 36.9048C144.156 37.6088 143.916 38.2168 143.644 38.7288H148.972ZM154.828 29.2968C155.436 28.9288 156.14 28.6568 156.94 28.4808C157.756 28.3048 158.604 28.2168 159.484 28.2168C160.316 28.2168 160.98 28.3288 161.476 28.5528C161.988 28.7768 162.372 29.0728 162.628 29.4408C162.9 29.7928 163.076 30.1848 163.156 30.6168C163.252 31.0488 163.3 31.4808 163.3 31.9128C163.3 32.8728 163.276 33.8088 163.228 34.7208C163.18 35.6328 163.156 36.4968 163.156 37.3128C163.156 37.9048 163.18 38.4648 163.228 38.9928C163.276 39.5208 163.364 40.0088 163.492 40.4568H162.076L161.572 38.7768H161.452C161.308 39.0008 161.124 39.2248 160.9 39.4488C160.692 39.6568 160.436 39.8488 160.132 40.0248C159.828 40.1848 159.476 40.3208 159.076 40.4328C158.676 40.5448 158.22 40.6008 157.708 40.6008C157.196 40.6008 156.716 40.5208 156.268 40.3608C155.836 40.2008 155.46 39.9768 155.14 39.6888C154.82 39.3848 154.564 39.0248 154.372 38.6088C154.196 38.1928 154.108 37.7208 154.108 37.1928C154.108 36.4888 154.252 35.9048 154.54 35.4408C154.828 34.9608 155.228 34.5848 155.74 34.3128C156.268 34.0248 156.892 33.8248 157.612 33.7128C158.348 33.5848 159.156 33.5208 160.036 33.5208C160.26 33.5208 160.476 33.5208 160.684 33.5208C160.908 33.5208 161.132 33.5368 161.356 33.5688C161.404 33.0888 161.428 32.6568 161.428 32.2728C161.428 31.3928 161.252 30.7768 160.9 30.4248C160.548 30.0728 159.908 29.8968 158.98 29.8968C158.708 29.8968 158.412 29.9208 158.092 29.9688C157.788 30.0008 157.468 30.0568 157.132 30.1368C156.812 30.2008 156.5 30.2888 156.196 30.4008C155.908 30.4968 155.652 30.6088 155.428 30.7368L154.828 29.2968ZM158.236 38.9208C158.684 38.9208 159.084 38.8648 159.436 38.7528C159.788 38.6248 160.092 38.4728 160.348 38.2968C160.604 38.1048 160.812 37.8968 160.972 37.6728C161.148 37.4488 161.276 37.2328 161.356 37.0248V35.0328C161.132 35.0168 160.9 35.0088 160.66 35.0088C160.436 34.9928 160.212 34.9848 159.988 34.9848C159.492 34.9848 159.004 35.0168 158.524 35.0808C158.06 35.1288 157.644 35.2328 157.276 35.3928C156.924 35.5368 156.636 35.7448 156.412 36.0168C156.204 36.2728 156.1 36.6008 156.1 37.0008C156.1 37.5608 156.3 38.0248 156.7 38.3928C157.1 38.7448 157.612 38.9208 158.236 38.9208ZM166.926 28.4088H168.246L168.606 29.8488H168.702C169.07 29.2888 169.542 28.8648 170.118 28.5768C170.71 28.2728 171.382 28.1208 172.134 28.1208C173.734 28.1208 174.926 28.5928 175.71 29.5368C176.494 30.4808 176.886 32.0248 176.886 34.1688C176.886 35.1768 176.75 36.0888 176.478 36.9048C176.222 37.7048 175.854 38.3848 175.374 38.9448C174.894 39.5048 174.31 39.9368 173.622 40.2408C172.95 40.5448 172.198 40.6968 171.366 40.6968C170.774 40.6968 170.302 40.6568 169.95 40.5768C169.614 40.5128 169.246 40.3928 168.846 40.2168V45.2088H166.926V28.4088ZM171.774 29.8008C170.958 29.8008 170.31 30.0168 169.83 30.4488C169.366 30.8648 169.038 31.5048 168.846 32.3688V38.3208C169.134 38.5448 169.462 38.7208 169.83 38.8488C170.198 38.9608 170.686 39.0168 171.294 39.0168C172.398 39.0168 173.27 38.6088 173.91 37.7928C174.566 36.9608 174.894 35.7448 174.894 34.1448C174.894 33.4888 174.838 32.8968 174.726 32.3688C174.614 31.8248 174.43 31.3688 174.174 31.0008C173.934 30.6168 173.614 30.3208 173.214 30.1128C172.83 29.9048 172.35 29.8008 171.774 29.8008ZM188.095 39.6168C187.615 39.9688 187.047 40.2328 186.391 40.4088C185.735 40.6008 185.047 40.6968 184.327 40.6968C183.399 40.6968 182.615 40.5528 181.975 40.2648C181.335 39.9608 180.807 39.5368 180.391 38.9928C179.991 38.4328 179.695 37.7688 179.503 37.0008C179.327 36.2168 179.239 35.3528 179.239 34.4088C179.239 32.3768 179.687 30.8248 180.583 29.7528C181.479 28.6648 182.767 28.1208 184.447 28.1208C185.215 28.1208 185.863 28.1848 186.391 28.3128C186.935 28.4248 187.423 28.5928 187.855 28.8168L187.303 30.4728C186.935 30.2648 186.527 30.1048 186.079 29.9928C185.631 29.8648 185.151 29.8008 184.639 29.8008C182.367 29.8008 181.23 31.3368 181.23 34.4088C181.23 35.0168 181.287 35.6008 181.399 36.1608C181.527 36.7048 181.727 37.1928 181.999 37.6248C182.287 38.0408 182.655 38.3768 183.103 38.6328C183.567 38.8888 184.135 39.0168 184.807 39.0168C185.383 39.0168 185.895 38.9288 186.343 38.7528C186.807 38.5768 187.183 38.3768 187.471 38.1528L188.095 39.6168ZM198.02 30.0888H194.252V40.4088H192.332V30.0888H188.564V28.4088H198.02V30.0888ZM199.926 28.4328C200.486 28.4008 201.07 28.3608 201.678 28.3128C202.302 28.2648 203.07 28.2408 203.982 28.2408C205.566 28.2408 206.702 28.4888 207.39 28.9848C208.078 29.4648 208.422 30.2008 208.422 31.1928C208.422 31.7528 208.254 32.3048 207.918 32.8488C207.598 33.3768 207.062 33.7688 206.31 34.0248V34.1208C207.254 34.2968 207.918 34.6248 208.302 35.1048C208.686 35.5848 208.878 36.2248 208.878 37.0248C208.878 38.2728 208.43 39.1768 207.534 39.7368C206.638 40.2968 205.294 40.5768 203.502 40.5768C202.83 40.5768 202.206 40.5528 201.63 40.5048C201.054 40.4728 200.486 40.4328 199.926 40.3848V28.4328ZM201.846 38.8008C202.15 38.8328 202.446 38.8568 202.734 38.8728C203.038 38.8888 203.39 38.8968 203.79 38.8968C204.862 38.8968 205.654 38.7448 206.166 38.4408C206.694 38.1368 206.958 37.6168 206.958 36.8808C206.958 36.3048 206.734 35.8408 206.286 35.4888C205.854 35.1208 205.078 34.9368 203.958 34.9368H201.846V38.8008ZM204.198 33.4728C204.486 33.4728 204.766 33.4248 205.038 33.3288C205.31 33.2328 205.55 33.1048 205.758 32.9448C205.982 32.7688 206.158 32.5688 206.286 32.3448C206.43 32.1208 206.502 31.8808 206.502 31.6248C206.502 30.9848 206.31 30.5448 205.926 30.3048C205.542 30.0488 204.87 29.9208 203.91 29.9208C203.398 29.9208 202.99 29.9288 202.686 29.9448C202.398 29.9608 202.118 29.9768 201.846 29.9928V33.4728H204.198ZM220.663 39.4488C220.183 39.8328 219.575 40.1368 218.839 40.3608C218.119 40.5848 217.351 40.6968 216.535 40.6968C215.623 40.6968 214.831 40.5528 214.159 40.2648C213.487 39.9608 212.935 39.5368 212.503 38.9928C212.071 38.4328 211.751 37.7688 211.543 37.0008C211.335 36.2328 211.231 35.3688 211.231 34.4088C211.231 32.3608 211.687 30.8008 212.599 29.7288C213.511 28.6568 214.815 28.1208 216.511 28.1208C217.055 28.1208 217.599 28.1848 218.143 28.3128C218.687 28.4248 219.175 28.6488 219.607 28.9848C220.039 29.3208 220.391 29.8008 220.663 30.4248C220.935 31.0328 221.071 31.8408 221.071 32.8488C221.071 33.3768 221.023 33.9608 220.927 34.6008H213.223C213.223 35.3048 213.295 35.9288 213.439 36.4728C213.583 37.0168 213.807 37.4808 214.111 37.8648C214.415 38.2328 214.807 38.5208 215.287 38.7288C215.783 38.9208 216.383 39.0168 217.087 39.0168C217.631 39.0168 218.175 38.9208 218.719 38.7288C219.263 38.5368 219.671 38.3128 219.943 38.0568L220.663 39.4488ZM216.535 29.8008C215.591 29.8008 214.831 30.0488 214.255 30.5448C213.695 31.0408 213.359 31.8888 213.247 33.0888H219.199C219.199 31.8728 218.967 31.0248 218.503 30.5448C218.039 30.0488 217.383 29.8008 216.535 29.8008ZM231.434 35.1048H226.01V40.4088H224.09V28.4088H226.01V33.4248H231.434V28.4088H233.354V40.4088H231.434V35.1048ZM244.395 35.1048H238.971V40.4088H237.051V28.4088H238.971V33.4248H244.395V28.4088H246.315V40.4088H244.395V35.1048ZM251.932 38.7288C252.524 38.8248 253.092 38.8728 253.636 38.8728C254.644 38.8728 255.348 38.6808 255.748 38.2968C256.148 37.8968 256.348 37.3368 256.348 36.6168C256.348 35.9768 256.148 35.4488 255.748 35.0328C255.364 34.6168 254.684 34.4088 253.708 34.4088C253.436 34.4088 253.14 34.4168 252.82 34.4328C252.5 34.4488 252.204 34.4968 251.932 34.5768V38.7288ZM251.932 32.9928C252.316 32.9288 252.684 32.8888 253.036 32.8728C253.388 32.8408 253.724 32.8248 254.044 32.8248C254.86 32.8248 255.54 32.9208 256.084 33.1128C256.644 33.2888 257.092 33.5368 257.428 33.8568C257.764 34.1768 257.996 34.5608 258.124 35.0088C258.268 35.4408 258.34 35.9048 258.34 36.4008C258.34 37.8568 257.932 38.9128 257.116 39.5688C256.316 40.2248 255.012 40.5528 253.204 40.5528C252.18 40.5528 251.116 40.5048 250.012 40.4088V28.4088H251.932V32.9928ZM260.236 28.4088H262.156V40.4088H260.236V28.4088ZM274.616 39.4488C274.136 39.8328 273.528 40.1368 272.792 40.3608C272.072 40.5848 271.304 40.6968 270.488 40.6968C269.576 40.6968 268.784 40.5528 268.112 40.2648C267.44 39.9608 266.888 39.5368 266.456 38.9928C266.024 38.4328 265.704 37.7688 265.496 37.0008C265.288 36.2328 265.184 35.3688 265.184 34.4088C265.184 32.3608 265.64 30.8008 266.552 29.7288C267.464 28.6568 268.768 28.1208 270.464 28.1208C271.008 28.1208 271.552 28.1848 272.096 28.3128C272.64 28.4248 273.128 28.6488 273.56 28.9848C273.992 29.3208 274.344 29.8008 274.616 30.4248C274.888 31.0328 275.024 31.8408 275.024 32.8488C275.024 33.3768 274.976 33.9608 274.88 34.6008H267.176C267.176 35.3048 267.248 35.9288 267.392 36.4728C267.536 37.0168 267.76 37.4808 268.064 37.8648C268.368 38.2328 268.76 38.5208 269.24 38.7288C269.736 38.9208 270.336 39.0168 271.04 39.0168C271.584 39.0168 272.128 38.9208 272.672 38.7288C273.216 38.5368 273.624 38.3128 273.896 38.0568L274.616 39.4488ZM270.488 29.8008C269.544 29.8008 268.784 30.0488 268.208 30.5448C267.648 31.0408 267.312 31.8888 267.2 33.0888H273.152C273.152 31.8728 272.92 31.0248 272.456 30.5448C271.992 30.0488 271.336 29.8008 270.488 29.8008ZM287.97 36.1848L288.642 38.4888H288.762L289.29 36.1608L291.618 28.4088H293.562L290.01 39.1848C289.738 39.9688 289.466 40.7288 289.194 41.4648C288.938 42.2008 288.65 42.8568 288.33 43.4328C288.01 44.0088 287.65 44.4648 287.25 44.8008C286.85 45.1528 286.386 45.3288 285.858 45.3288C285.282 45.3288 284.81 45.2488 284.442 45.0888L284.778 43.4328C284.986 43.5128 285.186 43.5528 285.378 43.5528C285.826 43.5528 286.258 43.3128 286.674 42.8328C287.09 42.3688 287.434 41.5608 287.706 40.4088L282.882 28.4088H285.09L287.97 36.1848ZM303.665 39.6168C303.185 39.9688 302.617 40.2328 301.961 40.4088C301.305 40.6008 300.617 40.6968 299.897 40.6968C298.969 40.6968 298.185 40.5528 297.545 40.2648C296.905 39.9608 296.377 39.5368 295.961 38.9928C295.561 38.4328 295.265 37.7688 295.073 37.0008C294.897 36.2168 294.809 35.3528 294.809 34.4088C294.809 32.3768 295.257 30.8248 296.153 29.7528C297.049 28.6648 298.337 28.1208 300.017 28.1208C300.785 28.1208 301.433 28.1848 301.961 28.3128C302.505 28.4248 302.993 28.5928 303.425 28.8168L302.873 30.4728C302.505 30.2648 302.097 30.1048 301.649 29.9928C301.201 29.8648 300.721 29.8008 300.209 29.8008C297.937 29.8008 296.801 31.3368 296.801 34.4088C296.801 35.0168 296.857 35.6008 296.969 36.1608C297.097 36.7048 297.297 37.1928 297.569 37.6248C297.857 38.0408 298.225 38.3768 298.673 38.6328C299.137 38.8888 299.705 39.0168 300.377 39.0168C300.953 39.0168 301.465 38.9288 301.913 38.7528C302.377 38.5768 302.753 38.3768 303.041 38.1528L303.665 39.6168ZM312.742 30.0888H309.262C309.214 30.7608 309.166 31.4888 309.118 32.2728C309.07 33.0408 308.998 33.8168 308.902 34.6008C308.806 35.3688 308.678 36.1128 308.518 36.8328C308.358 37.5368 308.15 38.1608 307.894 38.7048C307.654 39.2488 307.35 39.6888 306.982 40.0248C306.63 40.3448 306.206 40.5048 305.71 40.5048C305.406 40.5048 305.142 40.4888 304.918 40.4568C304.694 40.4248 304.493 40.3688 304.317 40.2888L304.606 38.6808C304.798 38.7448 305.006 38.7768 305.229 38.7768C305.55 38.7768 305.838 38.6408 306.094 38.3688C306.35 38.0968 306.574 37.5848 306.766 36.8328C306.958 36.0648 307.118 35.0088 307.246 33.6648C307.374 32.3208 307.462 30.5688 307.51 28.4088H314.662V40.4088H312.742V30.0888ZM321.884 36.1848L322.556 38.4888H322.676L323.204 36.1608L325.532 28.4088H327.476L323.924 39.1848C323.652 39.9688 323.38 40.7288 323.108 41.4648C322.852 42.2008 322.564 42.8568 322.244 43.4328C321.924 44.0088 321.564 44.4648 321.164 44.8008C320.764 45.1528 320.3 45.3288 319.772 45.3288C319.196 45.3288 318.724 45.2488 318.356 45.0888L318.692 43.4328C318.9 43.5128 319.1 43.5528 319.292 43.5528C319.74 43.5528 320.172 43.3128 320.588 42.8328C321.004 42.3688 321.348 41.5608 321.62 40.4088L316.796 28.4088H319.004L321.884 36.1848ZM336.544 30.0888H331.456V40.4088H329.536V28.4088H336.544V30.0888ZM345.883 33.3048L345.955 31.8168H345.883L344.899 33.3528L339.499 40.4088H338.395V28.4088H340.315V35.7288L340.243 37.1448H340.339L341.275 35.6568L346.675 28.4088H347.803V40.4088H345.883V33.3048ZM104.768 63.4648L105.392 65.6008H105.512L105.992 63.3928L109.208 54.6088H111.248L107 65.5288C106.568 66.6648 106.184 67.6168 105.848 68.3848C105.528 69.1368 105.2 69.7528 104.864 70.2328C104.528 70.6968 104.168 71.0328 103.784 71.2408C103.4 71.4328 102.928 71.5288 102.368 71.5288C101.84 71.5288 101.416 71.4888 101.096 71.4088C100.792 71.3128 100.504 71.1768 100.232 71.0008L100.832 69.3448C101.152 69.5208 101.448 69.6328 101.72 69.6808C101.992 69.7288 102.24 69.7528 102.464 69.7528C102.912 69.7528 103.288 69.5288 103.592 69.0808C103.896 68.6168 104.16 67.9368 104.384 67.0408L98.168 54.6088H100.472L104.768 63.4648ZM121.565 74.4568H120.269L119.909 71.4088H110.885L110.525 74.4568H109.229V69.7288H110.645C110.773 69.5528 110.941 69.2408 111.149 68.7928C111.357 68.3288 111.557 67.6888 111.749 66.8728C111.957 66.0408 112.133 65.0168 112.277 63.8008C112.437 62.5688 112.533 61.1048 112.565 59.4088H119.813V69.7288H121.565V74.4568ZM117.893 69.7288V61.0888H114.293C114.261 61.7608 114.205 62.4968 114.125 63.2968C114.045 64.0808 113.933 64.8728 113.789 65.6728C113.661 66.4568 113.493 67.2008 113.285 67.9048C113.077 68.6088 112.837 69.2168 112.565 69.7288H117.893ZM133.854 64.2808L133.998 62.0008H133.878L133.014 63.8488L130.11 68.5528H129.438L126.414 63.8488L125.622 62.0008H125.526L125.718 64.2568V71.4088H123.942V59.4088H125.838L129.198 64.7848L129.894 66.1768H129.942L130.662 64.7368L133.806 59.4088H135.726V71.4088H133.854V64.2808ZM142.939 67.1848L143.611 69.4888H143.73L144.259 67.1608L146.587 59.4088H148.531L144.979 70.1848C144.707 70.9688 144.435 71.7288 144.163 72.4648C143.907 73.2008 143.619 73.8568 143.299 74.4328C142.979 75.0088 142.619 75.4648 142.219 75.8008C141.819 76.1528 141.355 76.3288 140.827 76.3288C140.251 76.3288 139.779 76.2488 139.411 76.0888L139.747 74.4328C139.955 74.5128 140.155 74.5528 140.347 74.5528C140.795 74.5528 141.227 74.3128 141.643 73.8328C142.059 73.3688 142.403 72.5608 142.675 71.4088L137.851 59.4088H140.059L142.939 67.1848ZM150.59 59.4088H151.91L152.27 60.8488H152.366C152.734 60.2888 153.206 59.8648 153.782 59.5768C154.374 59.2728 155.046 59.1208 155.798 59.1208C157.398 59.1208 158.59 59.5928 159.374 60.5368C160.158 61.4808 160.55 63.0248 160.55 65.1688C160.55 66.1768 160.414 67.0888 160.142 67.9048C159.886 68.7048 159.518 69.3848 159.038 69.9448C158.558 70.5048 157.974 70.9368 157.286 71.2408C156.614 71.5448 155.862 71.6968 155.03 71.6968C154.438 71.6968 153.966 71.6568 153.614 71.5768C153.278 71.5128 152.91 71.3928 152.51 71.2168V76.2088H150.59V59.4088ZM155.438 60.8008C154.622 60.8008 153.974 61.0168 153.494 61.4488C153.03 61.8648 152.702 62.5048 152.51 63.3688V69.3208C152.798 69.5448 153.126 69.7208 153.494 69.8488C153.862 69.9608 154.35 70.0168 154.958 70.0168C156.062 70.0168 156.934 69.6088 157.574 68.7928C158.23 67.9608 158.558 66.7448 158.558 65.1448C158.558 64.4888 158.502 63.8968 158.39 63.3688C158.278 62.8248 158.094 62.3688 157.838 62.0008C157.598 61.6168 157.278 61.3208 156.878 61.1128C156.494 60.9048 156.014 60.8008 155.438 60.8008ZM170.856 61.0888H167.088V71.4088H165.168V61.0888H161.4V59.4088H170.856V61.0888ZM180.571 70.6168C180.091 70.9688 179.523 71.2328 178.867 71.4088C178.211 71.6008 177.523 71.6968 176.803 71.6968C175.875 71.6968 175.091 71.5528 174.451 71.2648C173.811 70.9608 173.283 70.5368 172.867 69.9928C172.467 69.4328 172.171 68.7688 171.979 68.0008C171.803 67.2168 171.715 66.3528 171.715 65.4088C171.715 63.3768 172.163 61.8248 173.059 60.7528C173.955 59.6648 175.243 59.1208 176.923 59.1208C177.691 59.1208 178.339 59.1848 178.867 59.3128C179.411 59.4248 179.899 59.5928 180.331 59.8168L179.779 61.4728C179.411 61.2648 179.003 61.1048 178.555 60.9928C178.107 60.8648 177.627 60.8008 177.115 60.8008C174.843 60.8008 173.707 62.3368 173.707 65.4088C173.707 66.0168 173.763 66.6008 173.875 67.1608C174.003 67.7048 174.203 68.1928 174.475 68.6248C174.763 69.0408 175.131 69.3768 175.579 69.6328C176.043 69.8888 176.611 70.0168 177.283 70.0168C177.859 70.0168 178.371 69.9288 178.819 69.7528C179.283 69.5768 179.659 69.3768 179.947 69.1528L180.571 70.6168ZM186.239 66.0088H185.135V71.4088H183.215V59.4088H185.135V64.8328L186.167 64.4968L190.007 59.4088H192.095L188.375 64.2328L187.367 65.0248L188.615 65.9848L192.623 71.4088H190.247L186.239 66.0088ZM193.746 65.4088C193.746 63.3768 194.194 61.8248 195.09 60.7528C196.002 59.6648 197.306 59.1208 199.002 59.1208C199.898 59.1208 200.674 59.2728 201.33 59.5768C202.002 59.8648 202.554 60.2888 202.986 60.8488C203.418 61.3928 203.738 62.0568 203.946 62.8408C204.154 63.6088 204.258 64.4648 204.258 65.4088C204.258 67.4408 203.802 69.0008 202.89 70.0888C201.994 71.1608 200.698 71.6968 199.002 71.6968C198.106 71.6968 197.322 71.5528 196.65 71.2648C195.994 70.9608 195.45 70.5368 195.018 69.9928C194.586 69.4328 194.266 68.7688 194.058 68.0008C193.85 67.2168 193.746 66.3528 193.746 65.4088ZM195.738 65.4088C195.738 66.0168 195.794 66.6008 195.906 67.1608C196.034 67.7208 196.226 68.2088 196.482 68.6248C196.738 69.0408 197.074 69.3768 197.49 69.6328C197.906 69.8888 198.41 70.0168 199.002 70.0168C201.178 70.0328 202.266 68.4968 202.266 65.4088C202.266 64.7848 202.202 64.1928 202.074 63.6328C201.962 63.0728 201.778 62.5848 201.522 62.1688C201.266 61.7528 200.93 61.4248 200.514 61.1848C200.098 60.9288 199.594 60.8008 199.002 60.8008C196.826 60.7848 195.738 62.3208 195.738 65.4088ZM214.774 64.3048L214.846 62.8168H214.774L213.79 64.3528L208.39 71.4088H207.286V59.4088H209.206V66.7288L209.134 68.1448H209.23L210.166 66.6568L215.566 59.4088H216.694V71.4088H214.774V64.3048ZM210.046 54.5608C210.206 55.2968 210.478 55.8088 210.862 56.0968C211.262 56.3848 211.718 56.5288 212.23 56.5288C212.742 56.5288 213.198 56.3768 213.598 56.0728C213.998 55.7688 214.27 55.2728 214.414 54.5848L215.854 55.0408C215.71 55.9688 215.294 56.6808 214.606 57.1768C213.934 57.6728 213.126 57.9208 212.182 57.9208C211.75 57.9208 211.318 57.8648 210.886 57.7528C210.47 57.6408 210.094 57.4728 209.758 57.2488C209.422 57.0248 209.134 56.7368 208.894 56.3848C208.654 56.0328 208.494 55.6168 208.414 55.1368L210.046 54.5608ZM226.978 54.7768C227.586 54.6328 228.242 54.5368 228.946 54.4888C229.65 54.4408 230.346 54.4168 231.034 54.4168C231.77 54.4168 232.514 54.4888 233.266 54.6328C234.034 54.7768 234.73 55.0408 235.354 55.4248C235.978 55.8088 236.482 56.3368 236.866 57.0088C237.266 57.6808 237.466 58.5368 237.466 59.5768C237.466 60.6008 237.282 61.4648 236.914 62.1688C236.546 62.8728 236.058 63.4488 235.45 63.8968C234.842 64.3288 234.146 64.6408 233.362 64.8328C232.578 65.0248 231.77 65.1208 230.938 65.1208C230.858 65.1208 230.722 65.1208 230.53 65.1208C230.354 65.1208 230.162 65.1208 229.954 65.1208C229.762 65.1048 229.57 65.0888 229.378 65.0728C229.186 65.0568 229.05 65.0408 228.97 65.0248V71.4088H226.978V54.7768ZM231.082 56.1448C230.666 56.1448 230.266 56.1528 229.882 56.1688C229.498 56.1848 229.194 56.2248 228.97 56.2888V63.2488C229.05 63.2808 229.178 63.3048 229.354 63.3208C229.53 63.3208 229.714 63.3288 229.906 63.3448C230.098 63.3448 230.282 63.3448 230.458 63.3448C230.634 63.3448 230.762 63.3448 230.842 63.3448C231.386 63.3448 231.922 63.2968 232.45 63.2008C232.994 63.0888 233.482 62.8968 233.914 62.6248C234.346 62.3528 234.69 61.9688 234.946 61.4728C235.218 60.9768 235.354 60.3448 235.354 59.5768C235.354 58.9208 235.226 58.3768 234.97 57.9448C234.73 57.4968 234.402 57.1448 233.986 56.8888C233.586 56.6168 233.13 56.4248 232.618 56.3128C232.106 56.2008 231.594 56.1448 231.082 56.1448ZM248.085 70.4488C247.605 70.8328 246.997 71.1368 246.261 71.3608C245.541 71.5848 244.773 71.6968 243.957 71.6968C243.045 71.6968 242.253 71.5528 241.581 71.2648C240.909 70.9608 240.357 70.5368 239.925 69.9928C239.493 69.4328 239.173 68.7688 238.965 68.0008C238.757 67.2328 238.653 66.3688 238.653 65.4088C238.653 63.3608 239.109 61.8008 240.021 60.7288C240.933 59.6568 242.237 59.1208 243.933 59.1208C244.477 59.1208 245.021 59.1848 245.565 59.3128C246.109 59.4248 246.597 59.6488 247.029 59.9848C247.461 60.3208 247.813 60.8008 248.085 61.4248C248.357 62.0328 248.493 62.8408 248.493 63.8488C248.493 64.3768 248.445 64.9608 248.349 65.6008H240.645C240.645 66.3048 240.717 66.9288 240.861 67.4728C241.005 68.0168 241.229 68.4808 241.533 68.8648C241.837 69.2328 242.229 69.5208 242.709 69.7288C243.205 69.9208 243.805 70.0168 244.509 70.0168C245.053 70.0168 245.597 69.9208 246.141 69.7288C246.685 69.5368 247.093 69.3128 247.365 69.0568L248.085 70.4488ZM243.957 60.8008C243.013 60.8008 242.253 61.0488 241.677 61.5448C241.117 62.0408 240.781 62.8888 240.669 64.0888H246.621C246.621 62.8728 246.389 62.0248 245.925 61.5448C245.461 61.0488 244.805 60.8008 243.957 60.8008ZM259.438 70.6168C258.958 70.9688 258.39 71.2328 257.734 71.4088C257.078 71.6008 256.39 71.6968 255.67 71.6968C254.742 71.6968 253.958 71.5528 253.318 71.2648C252.678 70.9608 252.15 70.5368 251.734 69.9928C251.334 69.4328 251.038 68.7688 250.846 68.0008C250.67 67.2168 250.582 66.3528 250.582 65.4088C250.582 63.3768 251.03 61.8248 251.926 60.7528C252.822 59.6648 254.11 59.1208 255.79 59.1208C256.558 59.1208 257.206 59.1848 257.734 59.3128C258.278 59.4248 258.766 59.5928 259.198 59.8168L258.646 61.4728C258.278 61.2648 257.87 61.1048 257.422 60.9928C256.974 60.8648 256.494 60.8008 255.982 60.8008C253.71 60.8008 252.574 62.3368 252.574 65.4088C252.574 66.0168 252.63 66.6008 252.742 67.1608C252.87 67.7048 253.07 68.1928 253.342 68.6248C253.63 69.0408 253.998 69.3768 254.446 69.6328C254.91 69.8888 255.478 70.0168 256.15 70.0168C256.726 70.0168 257.238 69.9288 257.686 69.7528C258.15 69.5768 258.526 69.3768 258.814 69.1528L259.438 70.6168ZM269.306 61.0888H264.002V71.4088H262.082V59.4088H271.226V71.4088H269.306V61.0888ZM278.454 67.1848L279.126 69.4888H279.246L279.774 67.1608L282.102 59.4088H284.046L280.494 70.1848C280.222 70.9688 279.95 71.7288 279.678 72.4648C279.422 73.2008 279.134 73.8568 278.814 74.4328C278.494 75.0088 278.134 75.4648 277.734 75.8008C277.334 76.1528 276.87 76.3288 276.342 76.3288C275.766 76.3288 275.294 76.2488 274.926 76.0888L275.262 74.4328C275.47 74.5128 275.67 74.5528 275.862 74.5528C276.31 74.5528 276.742 74.3128 277.158 73.8328C277.574 73.3688 277.918 72.5608 278.19 71.4088L273.366 59.4088H275.574L278.454 67.1848ZM287.21 61.5448C287.738 60.7768 288.322 60.2408 288.962 59.9368C289.602 59.6168 290.402 59.4568 291.362 59.4568C292.834 59.4568 293.962 59.9368 294.746 60.8968C295.546 61.8568 295.946 63.2728 295.946 65.1448C295.946 67.3048 295.482 68.9368 294.554 70.0408C293.642 71.1448 292.362 71.6968 290.714 71.6968C288.954 71.6968 287.634 71.0888 286.754 69.8728C285.874 68.6568 285.434 66.7448 285.434 64.1368C285.434 62.7608 285.498 61.5848 285.626 60.6088C285.77 59.6328 285.97 58.8088 286.226 58.1368C286.498 57.4648 286.818 56.9288 287.186 56.5288C287.57 56.1288 287.994 55.8168 288.458 55.5928C288.938 55.3528 289.458 55.1848 290.018 55.0888C290.578 54.9928 291.178 54.9128 291.818 54.8488C292.65 54.7688 293.298 54.6808 293.762 54.5848C294.242 54.4728 294.626 54.2808 294.914 54.0088L295.13 55.7368C294.97 55.8808 294.794 56.0008 294.602 56.0968C294.41 56.1928 294.178 56.2728 293.906 56.3368C293.634 56.4008 293.306 56.4568 292.922 56.5048C292.554 56.5528 292.122 56.5928 291.626 56.6248C290.938 56.6728 290.33 56.7608 289.802 56.8888C289.29 57.0008 288.842 57.2328 288.458 57.5848C288.09 57.9208 287.794 58.4088 287.57 59.0488C287.362 59.6728 287.218 60.5048 287.138 61.5448H287.21ZM287.426 65.4328C287.426 66.0408 287.49 66.6248 287.618 67.1848C287.746 67.7448 287.938 68.2408 288.194 68.6728C288.466 69.0888 288.81 69.4168 289.226 69.6568C289.642 69.8968 290.13 70.0168 290.69 70.0168C291.794 70.0168 292.61 69.6248 293.138 68.8408C293.682 68.0408 293.954 66.8648 293.954 65.3128C293.954 64.7048 293.898 64.1448 293.786 63.6328C293.674 63.1208 293.498 62.6808 293.258 62.3128C293.018 61.9288 292.714 61.6408 292.346 61.4488C291.978 61.2408 291.538 61.1368 291.026 61.1368C289.778 61.1208 288.866 61.4888 288.29 62.2408C287.714 62.9768 287.426 64.0408 287.426 65.4328ZM305.288 61.0888H301.808C301.76 61.7608 301.712 62.4888 301.664 63.2728C301.616 64.0408 301.544 64.8168 301.448 65.6008C301.352 66.3688 301.224 67.1128 301.064 67.8328C300.904 68.5368 300.696 69.1608 300.44 69.7048C300.2 70.2488 299.896 70.6888 299.528 71.0248C299.176 71.3448 298.752 71.5048 298.256 71.5048C297.952 71.5048 297.688 71.4888 297.464 71.4568C297.24 71.4248 297.04 71.3688 296.864 71.2888L297.152 69.6808C297.344 69.7448 297.552 69.7768 297.776 69.7768C298.096 69.7768 298.384 69.6408 298.64 69.3688C298.896 69.0968 299.12 68.5848 299.312 67.8328C299.504 67.0648 299.664 66.0088 299.792 64.6648C299.92 63.3208 300.008 61.5688 300.056 59.4088H307.208V71.4088H305.288V61.0888ZM318.391 64.3048L318.463 62.8168H318.391L317.407 64.3528L312.007 71.4088H310.903V59.4088H312.823V66.7288L312.751 68.1448H312.847L313.783 66.6568L319.183 59.4088H320.311V71.4088H318.391V64.3048ZM327.028 66.0088H325.924V71.4088H324.004V59.4088H325.924V64.8328L326.956 64.4968L330.796 59.4088H332.884L329.164 64.2328L328.156 65.0248L329.404 65.9848L333.412 71.4088H331.036L327.028 66.0088ZM342.953 64.3048L343.025 62.8168H342.953L341.969 64.3528L336.569 71.4088H335.465V59.4088H337.385V66.7288L337.313 68.1448H337.409L338.345 66.6568L343.745 59.4088H344.873V71.4088H342.953V64.3048Z" fill="#2C2A29"/>
</svg>
