<svg xmlns="http://www.w3.org/2000/svg" width="50" height="51"><g fill="none" fill-rule="evenodd"><path fill="#2B2B2B" d="M24.58 43.15c10.31 0 18.665-8.355 18.665-18.663H5.918c0 10.308 8.356 18.664 18.663 18.664"/><path fill="#ED4333" d="M5.918 24.487h37.327c0-10.307-8.356-18.663-18.664-18.663-10.3 0-18.66 8.356-18.66 18.663z"/><path fill="#ED4333" d="M2.73 24.487c0 9.428 6.004 17.48 14.388 20.537l.465-1.28C9.716 40.884 4.097 33.342 4.097 24.487c0-10.504 7.907-19.156 18.093-20.34l-.857-1.267C10.82 4.454 2.73 13.543 2.73 24.487M27.83 2.88l-.857 1.266c10.185 1.186 18.093 9.838 18.093 20.34 0 8.856-5.62 16.398-13.486 19.258l.465 1.28c8.384-3.058 14.386-11.11 14.386-20.537 0-10.944-8.08-20.033-18.6-21.607"/><path fill="#FFF" d="M21.332 2.88l-.425-.628.396-.744C10.05 3.106 1.366 12.798 1.366 24.488c0 10.017 6.377 18.57 15.285 21.82l.47-1.28c-8.39-3.05-14.39-11.096-14.39-20.54 0-10.965 8.08-20.04 18.6-21.61m6.53-1.37l.4.743-.42.63c10.53 1.57 18.6 10.65 18.6 21.61 0 9.45-5.99 17.49-14.38 20.54l.47 1.28c8.9-3.25 15.28-11.8 15.28-21.82 0-11.69-8.68-21.38-19.93-22.98"/><path fill="#2B2B2B" d="M21.303 1.506L22.09.032C9.7 1.285 0 11.775 0 24.487 0 35.094 6.753 44.152 16.185 47.59l.465-1.28C7.734 43.07 1.366 34.524 1.366 24.488c0-11.708 8.67-21.387 19.937-22.98M27.075.032l.785 1.474C39.128 3.1 47.797 12.78 47.797 24.488c0 10.035-6.37 18.582-15.284 21.823l.465 1.28c9.432-3.44 16.184-12.49 16.184-23.1 0-12.71-9.7-23.2-22.087-24.45"/><path fill="#2B2B2B" d="M21.936 4.177l-1.295-1.91L21.82.06l.55-.06-1.192 2.237 1.27 1.875zm5.294 0l1.295-1.91L27.35.06 26.803 0l1.19 2.237-1.27 1.875z"/><path fill="#FFF" d="M40.13 19.925l-2.622 1.036s2.622-1.03 2.075-5.99l-2.766 2.12s2.766-2.12 1.096-7.68l-5.676 5.79c-1.32 1.19-2.464 2.79-2.24 4.79.05 1.36-1.397 5.69-4.923 4.48l.003-.61c.713-.87.306-2.35-.493-2.37h-.02c-.8.02-1.207 1.5-.494 2.38l.003.62c-3.526 1.2-4.973-3.13-4.923-4.486.22-1.993-.92-3.6-2.24-4.782l-5.68-5.8c-1.67 5.564 1.09 7.68 1.09 7.68l-2.76-2.12c-.55 4.964 2.07 6 2.07 6l-2.62-1.04c.72 4.566 2.87 4.748 2.87 4.748l-2.15-.18c1.695 3.94 3.675 3.484 3.675 3.484l-1.98.45c2.38 3.07 3.59 2.34 3.59 2.34l-1.21.73c2.77 1.984 3.45 1.217 3.45 1.217l-.68.77c2.873.66 3.253-.13 3.253-.13l-.38.8c2.245.27 2.68-.9 2.68-.9l-2.72 7.3c1.19.427 1.88-.51 1.88-.51l-.25.998c1.554.153 1.852-.733 1.852-.733l-.126.883c1.47.033 1.8-.755 1.8-.755s.33.787 1.8.753l-.12-.886s.3.88 1.853.73l-.25-.998s.693.935 1.882.51l-2.72-7.297s.43 1.16 2.68.89l-.38-.79s.38.79 3.25.13l-.68-.767s.68.767 3.45-1.216l-1.21-.73s1.21.73 3.59-2.347l-1.98-.45s1.98.456 3.67-3.48l-2.16.18s2.152-.18 2.873-4.75"/><path fill="#2B2B2B" d="M37.913 8.945a.455.455 0 0 0-.326.136l-5.665 5.79c-1.777 1.6-2.577 3.33-2.38 5.15.017.63-.384 2.29-1.403 3.35-.55.57-1.19.86-1.89.86-.23 0-.48-.03-.73-.09V24c.48-.702.43-1.595.17-2.16-.23-.504-.65-.81-1.11-.823h-.02c-.49.012-.9.32-1.14.824-.26.57-.31 1.46.17 2.16v.13c-.25.06-.49.1-.73.1-.7 0-1.336-.29-1.885-.86-1.02-1.05-1.42-2.71-1.406-3.34.2-1.82-.604-3.55-2.38-5.14l-5.656-5.8a.455.455 0 0 0-.76.19c-.81 2.69-.625 4.62-.18 5.93l-.78-.59a.457.457 0 0 0-.457-.053.455.455 0 0 0-.277.37c-.25 2.33.16 3.86.71 4.84l-.63-.25a.465.465 0 0 0-.45.07.456.456 0 0 0-.16.43c.33 2.1.97 3.34 1.6 4.08l-.39-.03a.455.455 0 0 0-.453.634c.77 1.788 1.616 2.738 2.346 3.24l-.334.076a.454.454 0 0 0-.257.72c1.05 1.36 1.92 2.04 2.59 2.355l-.09.05a.453.453 0 0 0-.03.76c1.05.75 1.936 1.21 2.65 1.376a.456.456 0 0 0 .29.68c.79.18 1.475.27 2.04.27.176 0 .336-.01.48-.023a.456.456 0 0 0 .4.42c.24.03.474.04.693.04.43 0 .79-.052 1.09-.14L19 40.4a.455.455 0 0 0 .273.59c.255.09.51.136.76.136.21 0 .4-.03.57-.08a.455.455 0 0 0 .414.455c.134.01.265.02.39.02a2.7 2.7 0 0 0 .957-.16.453.453 0 0 0 .41.29l.1.01c.86 0 1.39-.26 1.71-.51.317.26.85.52 1.71.52h.103a.45.45 0 0 0 .415-.29 2.7 2.7 0 0 0 .96.158c.124 0 .255-.007.39-.02a.455.455 0 0 0 .41-.456c.17.05.36.08.57.08.25 0 .507-.045.76-.136a.455.455 0 0 0 .275-.59l-2.2-5.89c.3.09.66.146 1.09.146.22 0 .455-.018.696-.047a.455.455 0 0 0 .4-.42c.146.018.305.027.48.027.566 0 1.25-.09 2.04-.27a.456.456 0 0 0 .29-.68c.713-.166 1.6-.63 2.647-1.376a.457.457 0 0 0-.03-.76l-.087-.054c.674-.32 1.54-1 2.59-2.36a.457.457 0 0 0-.26-.72l-.333-.08c.73-.5 1.578-1.45 2.346-3.236a.454.454 0 0 0-.457-.633L39 24.1c.62-.73 1.26-1.96 1.59-4.04a.454.454 0 0 0-.44-.56h-.03a.444.444 0 0 0-.16.037l-.63.245c.55-.98.96-2.51.7-4.84a.453.453 0 0 0-.73-.31l-.777.6c.44-1.31.626-3.24-.18-5.93a.455.455 0 0 0-.436-.32m0 .454c1.67 5.554-1.09 7.68-1.097 7.68l2.77-2.12c.55 4.954-2.063 5.994-2.07 6l2.62-1.038c-.72 4.563-2.88 4.745-2.88 4.745l2.154-.18c-1.38 3.2-2.944 3.5-3.48 3.5-.126 0-.195-.013-.195-.013l1.98.454c-1.616 2.086-2.69 2.42-3.217 2.42-.25 0-.375-.074-.375-.074l1.21.73c-1.565 1.116-2.46 1.36-2.947 1.36-.372 0-.5-.144-.502-.146l.68.77c-.843.19-1.47.26-1.94.26-1.12 0-1.312-.394-1.313-.4l.38.8c-.23.026-.443.04-.64.04-1.69 0-2.04-.938-2.04-.938l2.72 7.3c-.22.08-.42.11-.606.11-.81 0-1.27-.62-1.27-.62l.25.996a3.6 3.6 0 0 1-.34.013c-1.26 0-1.51-.75-1.51-.75l.13.885h-.1c-1.39 0-1.71-.753-1.71-.753s-.31.753-1.71.753h-.09l.13-.89s-.25.75-1.503.75c-.11 0-.222-.004-.345-.016l.25-.997s-.46.623-1.27.623c-.187 0-.39-.035-.61-.11l2.72-7.3s-.35.934-2.04.934c-.196 0-.41-.01-.64-.04l.38-.792c0 .003-.19.4-1.316.4-.47 0-1.096-.07-1.94-.265l.68-.764c-.003 0-.13.144-.51.144-.483 0-1.38-.24-2.943-1.36l1.21-.73s-.122.08-.37.08c-.524 0-1.6-.333-3.214-2.42l1.98-.46s-.07.017-.19.017c-.54 0-2.1-.3-3.48-3.5l2.16.18s-2.15-.18-2.87-4.75l2.62 1.04c-.01 0-2.62-1.04-2.08-5.995l2.764 2.12c-.003-.01-2.763-2.13-1.093-7.69l5.674 5.8c1.32 1.18 2.466 2.79 2.24 4.78-.042 1.19 1.07 4.69 3.74 4.69.37 0 .76-.07 1.18-.21v-.617c-.71-.876-.304-2.358.496-2.378h.02c.8.02 1.2 1.506.49 2.38v.613c.42.145.814.21 1.18.21 2.67 0 3.786-3.5 3.74-4.69-.224-1.995.92-3.6 2.24-4.784l5.68-5.8"/><path fill="#2B2B2B" d="M28.1 41.26a.227.227 0 0 1-.22-.172l-1.25-4.975a.228.228 0 0 1 .443-.11l1.25 4.974a.228.228 0 0 1-.222.283zm-1.726.15a.228.228 0 0 1-.225-.194l-.63-4.363a.228.228 0 1 1 .45-.065l.62 4.363a.228.228 0 0 1-.23.26zm7.677-21.982a.228.228 0 0 1-.13-.408l5.53-4.238a.227.227 0 1 1 .28.36l-5.53 4.24a.228.228 0 0 1-.14.046zm.08 3.097a.228.228 0 0 1-.08-.44l6.01-2.37a.227.227 0 1 1 .17.422l-6.01 2.373a.226.226 0 0 1-.08.015zm-.59 2.69a.227.227 0 0 1-.02-.454l5.88-.49a.228.228 0 0 1 .04.46l-5.87.5h-.02zm4.18 3.44a.216.216 0 0 1-.05-.006l-5.21-1.2a.228.228 0 0 1 .1-.45l5.21 1.19a.227.227 0 0 1-.05.45zm-2.38 3.076a.225.225 0 0 1-.11-.03l-4.12-2.48a.228.228 0 0 1 .24-.39l4.12 2.49a.228.228 0 0 1-.11.42zm-2.77 1.99a.228.228 0 0 1-.17-.07l-2.76-3.12a.227.227 0 1 1 .34-.3l2.77 3.12a.228.228 0 0 1-.17.38zm-2.87.66a.227.227 0 0 1-.2-.13l-1.37-2.85a.228.228 0 0 1 .41-.19l1.37 2.85a.228.228 0 0 1-.2.33zm-8.65 6.89a.228.228 0 0 1-.22-.28l1.25-4.97a.228.228 0 0 1 .44.11l-1.25 4.97a.227.227 0 0 1-.22.17zm1.73.15h-.03a.228.228 0 0 1-.19-.26l.63-4.36a.227.227 0 1 1 .45.07L23 41.22a.228.228 0 0 1-.224.194zM15.1 19.44a.228.228 0 0 1-.14-.05l-5.53-4.24a.227.227 0 1 1 .278-.36l5.532 4.24a.228.228 0 0 1-.14.41zm-.072 3.093a.226.226 0 0 1-.083-.016L8.937 20.14a.227.227 0 1 1 .167-.424l6.005 2.372a.228.228 0 0 1-.09.44zm.593 2.69h-.02l-5.87-.5a.227.227 0 0 1-.2-.246.23.23 0 0 1 .25-.207l5.88.495a.227.227 0 0 1-.01.455zm-4.18 3.44a.227.227 0 0 1-.05-.45l5.21-1.193a.228.228 0 0 1 .11.443l-5.21 1.19a.216.216 0 0 1-.05.007zm2.38 3.076a.228.228 0 0 1-.11-.42l4.12-2.49a.228.228 0 1 1 .24.39l-4.12 2.48a.225.225 0 0 1-.11.03zm2.77 1.98a.228.228 0 0 1-.17-.38l2.77-3.12a.228.228 0 1 1 .34.3l-2.76 3.12a.228.228 0 0 1-.17.08zm2.88.66a.228.228 0 0 1-.2-.33l1.36-2.86a.227.227 0 1 1 .41.19l-1.36 2.85a.227.227 0 0 1-.2.13zm5.12 6.28a.228.228 0 0 1-.23-.23v-2.84a.228.228 0 0 1 .46 0v2.84a.228.228 0 0 1-.22.22z"/><path fill="#ED4333" d="M26.016 30.976v2.016l-1.532-1.016-1.453 1.016v-2.016H21l1.047-1.468-1.047-1.5h2.03v-2.016l1.454 1 1.532-1v2.016h2.015l-1 1.5.93 1.468z"/><path fill="#FFF" d="M30 13.008v2.015l-.992-1.015-.992 1.015v-2.015H26l1-1-1-1h2.016V9l1.015 1.023L30 9v2.008h2.016l-1.016 1 1.016 1zm-9 0v2.015l-.992-1.015-.992 1.015v-2.015H17l1-1-1-1h2.016V9l1.015 1.023L21 9v2.008h2.016l-1.016 1 1.016 1z"/><path fill="#ED4333" d="M35.12 44.124a21.692 21.692 0 0 1-5.272 2.064l.33 1.323a23.04 23.04 0 0 0 5.596-2.19l-.654-1.19z"/><path fill="#FFF" d="M35.778 45.32a23.048 23.048 0 0 1-5.6 2.194l.328 1.323a24.398 24.398 0 0 0 5.927-2.328l-.655-1.19z"/><path fill="#2B2B2B" d="M36.437 46.516a24.45 24.45 0 0 1-5.93 2.324l.328 1.322a25.774 25.774 0 0 0 6.256-2.458l-.65-1.188z"/><path fill="#000" d="M30.614 50.217l-.987-3.974.442-.11.98 3.974z"/><path fill="#ED4333" d="M14.044 44.124a21.692 21.692 0 0 0 5.27 2.064l-.328 1.323a23.048 23.048 0 0 1-5.597-2.19l.65-1.19z"/><path fill="#FFF" d="M13.385 45.32a23.048 23.048 0 0 0 5.6 2.194l-.328 1.323a24.398 24.398 0 0 1-5.926-2.328l.66-1.19z"/><path fill="#2B2B2B" d="M12.726 46.516a24.457 24.457 0 0 0 5.93 2.324l-.328 1.322a25.774 25.774 0 0 1-6.256-2.458l.654-1.188z"/><path fill="#000" d="M18.55 50.217l-.443-.11.987-3.973.442.11z"/><path fill="#FFF" d="M32.045 45.523l-.465-1.28a20.442 20.442 0 0 1-6.998 1.228c-2.46 0-4.815-.43-7-1.22l-.464 1.28c2.33.85 4.843 1.32 7.464 1.32 2.62 0 5.133-.46 7.463-1.31"/><path fill="#2B2B2B" d="M32.51 46.806l-.463-1.28a21.813 21.813 0 0 1-7.466 1.31c-2.62 0-5.13-.463-7.46-1.31l-.46 1.28a23.104 23.104 0 0 0 7.93 1.396c2.79 0 5.46-.493 7.93-1.396"/><path fill="#ED4333" d="M31.578 44.24l-.464-1.28a19.08 19.08 0 0 1-6.533 1.146c-2.29 0-4.49-.406-6.53-1.147l-.46 1.28a20.377 20.377 0 0 0 7 1.23c2.46 0 4.82-.44 7-1.23"/><path fill="#000" d="M32.497 46.83L31.1 42.982l.428-.156 1.397 3.85zM16.65 46.8l1.397-3.85-.428-.154-1.4 3.85z"/></g></svg>