<svg xmlns="http://www.w3.org/2000/svg" xmlns:xlink="http://www.w3.org/1999/xlink" xml:space="preserve" width="149.254" height="132.778"><path fill="#EE030E" d="M133.472 38.558c-4.762-6.152-14.354-13.484-32.984-13.484H88.712L51.571 77.876h-2.632c-5.381 0-9.878-.812-13.356-2.369l-16.825 9.582c5.405 5.265 14.643 10.367 30.187 10.367H60.72l37.14-52.81h2.635c9.106 0 15.706 2.306 19.09 6.673 2.625 3.385 3.381 8.227 2.069 13.284-2.604 10.078-13.284 15.354-22.499 15.354h-15.75l-30.511 44.351H74.23l18.417-26.771h6.504c22.096 0 35.977-14.793 39.521-28.542 2.672-10.354.777-20.722-5.2-28.437z"/><path fill="#0990FE" d="M29.851 71.208c-2.623-3.389-3.379-8.23-2.072-13.285 1.918-7.424 8.435-15.356 20.976-15.356h17.271l22.085-32.098h-21.34L56.783 24.99h-8.031c-22.604 0-34.591 15.374-37.99 28.538-2.676 10.358-.783 20.727 5.193 28.443a29.957 29.957 0 0 0 2.8 3.117l16.825-9.582c-2.414-1.078-4.346-2.512-5.729-4.298z"/><defs><path id="a" d="M133.469 38.558c-4.762-6.152-14.354-13.484-32.983-13.484H88.71L51.571 77.876h-2.632c-9.104 0-15.709-2.312-19.089-6.668-2.623-3.389-3.379-8.23-2.072-13.285 1.918-7.424 8.434-15.355 20.975-15.355h17.27L88.108 10.47H66.77l-9.99 14.521h-8.027c-22.604 0-34.59 15.374-37.989 28.537-2.675 10.356-.783 20.725 5.194 28.442 4.764 6.152 14.354 13.484 32.98 13.484h11.775l37.139-52.809h2.632c9.109 0 15.707 2.305 19.093 6.672 2.624 3.385 3.38 8.227 2.069 13.284-2.604 10.078-13.287 15.354-22.499 15.354H83.401l-30.51 44.349h21.337l18.416-26.769h6.504c22.096 0 35.976-14.793 39.521-28.542 2.672-10.353.777-20.721-5.2-28.435z"/></defs><clipPath id="b"><use xlink:href="#a" overflow="visible"/></clipPath><g clip-path="url(#b)"><linearGradient id="c" x1="-701.069" x2="-701.069" y1="825.026" y2="782.707" gradientTransform="matrix(.7524 -.316 -.4362 -1.0387 942.223 651.996)" gradientUnits="userSpaceOnUse"><stop offset=".036" style="stop-color:#0991ff"/><stop offset=".158" style="stop-color:#0990fe"/><stop offset=".398" style="stop-color:#106cef"/><stop offset=".639" style="stop-color:#164fe4"/><stop offset=".848" style="stop-color:#1a3ddd"/><stop offset="1" style="stop-color:#1b37da"/></linearGradient><path fill="url(#c)" d="m134.637 27-123.5 64.999-18.935-49.992L108.567-6.862z"/><linearGradient id="d" x1="-1007.266" x2="-1007.266" y1="1211.829" y2="1173.158" gradientTransform="matrix(-.2732 .1359 .3056 .6141 -516.119 -550.808)" gradientUnits="userSpaceOnUse"><stop offset=".01" style="stop-color:#e60f2f"/><stop offset=".087" style="stop-color:#e40f37"/><stop offset=".21" style="stop-color:#df104e"/><stop offset=".362" style="stop-color:#d61174"/><stop offset=".474" style="stop-color:#ce1294"/><stop offset=".533" style="stop-color:#c41498"/><stop offset=".63" style="stop-color:#aa19a2"/><stop offset=".756" style="stop-color:#8022b3"/><stop offset=".902" style="stop-color:#462ec9"/><stop offset="1" style="stop-color:#1b37da"/></linearGradient><path fill="url(#d)" d="m95.241 40.806 42.25-21.022 13.239 26.607-42.246 21.025z"/><linearGradient id="e" x1="-623.372" x2="-627.372" y1="754.898" y2="782.398" gradientTransform="matrix(.9854 -.0462 .0462 -.8534 681.338 726.132)" gradientUnits="userSpaceOnUse"><stop offset=".117" style="stop-color:#cc0a1e"/><stop offset="1" style="stop-color:#ee030e"/></linearGradient><path fill="url(#e)" d="m43.819 101.4 103.619-32.677 10.603 33.614-103.618 32.679z"/><linearGradient id="f" x1="-733.5" x2="-733.5" y1="1218.066" y2="1168.859" gradientTransform="matrix(-.5924 .2587 .2699 .618 -691.558 -468.031)" gradientUnits="userSpaceOnUse"><stop offset=".179" style="stop-color:#e60f2f"/><stop offset=".228" style="stop-color:#dc0d3a"/><stop offset=".316" style="stop-color:#c20958"/><stop offset=".43" style="stop-color:#980388"/><stop offset=".474" style="stop-color:#86009c"/><stop offset=".514" style="stop-color:#7907a4"/><stop offset=".649" style="stop-color:#501cbb"/><stop offset=".771" style="stop-color:#332bcc"/><stop offset=".877" style="stop-color:#2134d6"/><stop offset=".954" style="stop-color:#1b37da"/></linearGradient><path fill="url(#f)" d="m17.137 87.999 81-44.499 14 26-74.5 40.999z"/></g></svg>