<svg width="25" height="25" viewBox="0 0 38 39" fill="none" xmlns="http://www.w3.org/2000/svg">
<g clip-path="url(#clip0_93_236)">
<path d="M37.494 35.5514L25.7166 23.774C27.6404 21.3263 28.7891 18.242 28.7891 14.8945C28.789 6.9574 22.3317 0.5 14.3944 0.5C14.3942 0.5 14.3944 0.5 14.3942 0.5C10.5494 0.5 6.93455 1.99736 4.21607 4.71592C1.49721 7.43478 0 11.0495 0 14.8945C0 22.8317 6.45733 29.289 14.3944 29.289C17.7419 29.289 20.8263 28.1404 23.2739 26.2166L35.0513 37.9941C35.3885 38.3314 35.8307 38.5 36.2727 38.5C36.7147 38.5 37.1569 38.3314 37.494 37.994C38.1687 37.3196 38.1687 36.2259 37.494 35.5514ZM14.3944 25.8345C8.36222 25.8345 3.45459 20.9269 3.45459 14.8945C3.45459 11.9723 4.59251 9.22501 6.65876 7.15876C8.72501 5.09236 11.4722 3.95459 14.3944 3.95459C20.4269 3.95459 25.3345 8.86223 25.3345 14.8946C25.3345 20.9269 20.4269 25.8345 14.3944 25.8345Z" fill="#623B2A" fill-opacity="0.6"/>
</g>
<defs>
<clipPath id="clip0_93_236">
<rect width="38" height="38" fill="white" transform="translate(0 0.5)"/>
</clipPath>
</defs>
</svg>
