<svg width="41" height="41" viewBox="0 0 41 41" fill="none" xmlns="http://www.w3.org/2000/svg">
<circle cx="20.5" cy="20.5" r="20" transform="matrix(-1 0 0 1 41 0)" fill="#E7342E" fill-opacity="0.8" stroke="black"/>
<circle cx="2" cy="2" r="2" transform="matrix(-1 0 0 1 17 13.7939)" fill="#131313"/>
<circle cx="2" cy="2" r="2" transform="matrix(-1 0 0 1 28 13.7939)" fill="#151515"/>
<path d="M13.3114 29.7191C13.5989 29.8254 13.9435 29.7718 14.0577 29.5076C15.3209 27.2307 17.7913 25.8535 20.4901 25.8535C23.247 25.8535 25.6592 27.2307 26.9225 29.5076C27.0377 29.7728 27.3823 29.878 27.6688 29.7191C27.9563 29.6129 28.0704 29.2951 27.9563 29.031C26.5208 26.4363 23.7057 24.7939 20.4901 24.7939C17.3315 24.7939 14.4593 26.4353 13.0809 29.031C12.9086 29.2961 13.0238 29.6139 13.3103 29.7191H13.3114Z" fill="#0B0B0B"/>
</svg>
