<svg width="41" height="41" viewBox="0 0 41 41" fill="none" xmlns="http://www.w3.org/2000/svg">
<circle cx="20.5" cy="20.5" r="20" transform="matrix(-1 0 0 1 41 0)" fill="#42A62A" fill-opacity="0.8" stroke="black"/>
<circle cx="2" cy="2" r="2" transform="matrix(-1 0 0 1 17 13.7939)" fill="#131313"/>
<circle cx="2" cy="2" r="2" transform="matrix(-1 0 0 1 28 13.7939)" fill="#151515"/>
<path d="M27.6886 24.8687C27.4011 24.7625 27.0565 24.8161 26.9423 25.0802C25.6791 27.3572 23.2087 28.7344 20.5099 28.7344C17.753 28.7344 15.3408 27.3572 14.0775 25.0802C13.9623 24.8151 13.6177 24.7099 13.3312 24.8687C13.0437 24.975 12.9296 25.2927 13.0437 25.5569C14.4792 28.1515 17.2943 29.7939 20.5099 29.7939C23.6685 29.7939 26.5407 28.1525 27.9191 25.5569C28.0914 25.2918 27.9762 24.974 27.6897 24.8687H27.6886Z" fill="#0B0B0B"/>
</svg>
